<svg width="234" height="29" viewBox="0 0 234 29" fill="none" xmlns="http://www.w3.org/2000/svg">
<path d="M16.6816 10L21.375 1.43359H22.4121L23.4961 10H22.5176L22.1777 7.26953H19.2188L17.7656 10H16.6816ZM19.6934 6.38477H22.0781L21.8496 4.38672C21.8223 4.09766 21.793 3.78125 21.7617 3.4375C21.7305 3.08984 21.7109 2.7793 21.7031 2.50586H21.668C21.543 2.80273 21.4004 3.11523 21.2402 3.44336C21.084 3.76758 20.918 4.0957 20.7422 4.42773L19.6934 6.38477ZM23.8242 12.8711L25.7871 3.57812H26.584L26.4258 4.82617H26.4668C26.6504 4.58398 26.8516 4.36133 27.0703 4.1582C27.293 3.95117 27.5352 3.78516 27.7969 3.66016C28.0625 3.53516 28.3516 3.47266 28.6641 3.47266C29.0156 3.47266 29.3223 3.55664 29.584 3.72461C29.8457 3.88867 30.0488 4.13477 30.1934 4.46289C30.3418 4.78711 30.416 5.19141 30.416 5.67578C30.416 6.13672 30.3691 6.58594 30.2754 7.02344C30.1855 7.45703 30.0527 7.86133 29.877 8.23633C29.7012 8.60742 29.4844 8.93555 29.2266 9.2207C28.9727 9.50195 28.6816 9.72266 28.3535 9.88281C28.0254 10.0391 27.6641 10.1172 27.2695 10.1172C26.9688 10.1172 26.709 10.0645 26.4902 9.95898C26.2754 9.84961 26.0938 9.70703 25.9453 9.53125C25.8008 9.35547 25.6855 9.16602 25.5996 8.96289H25.5469C25.5312 9.10742 25.5059 9.29688 25.4707 9.53125C25.4395 9.76172 25.4062 9.95508 25.3711 10.1113L24.7852 12.8711H23.8242ZM27.1992 9.30859C27.4727 9.30859 27.7227 9.24023 27.9492 9.10352C28.1797 8.9668 28.3848 8.78125 28.5645 8.54688C28.748 8.30859 28.9023 8.0332 29.0273 7.7207C29.1562 7.4082 29.2539 7.07617 29.3203 6.72461C29.3867 6.37305 29.4199 6.01562 29.4199 5.65234C29.4199 5.19922 29.3281 4.85742 29.1445 4.62695C28.9648 4.39648 28.6953 4.28125 28.3359 4.28125C28.1484 4.28125 27.959 4.32812 27.7676 4.42188C27.5762 4.51172 27.3906 4.64062 27.2109 4.80859C27.0312 4.97266 26.8633 5.16797 26.707 5.39453C26.5508 5.62109 26.4141 5.87109 26.2969 6.14453C26.1836 6.41797 26.0938 6.70703 26.0273 7.01172C25.9609 7.31641 25.9277 7.62891 25.9277 7.94922C25.9277 8.35938 26.0312 8.68945 26.2383 8.93945C26.4492 9.18555 26.7695 9.30859 27.1992 9.30859ZM30.7617 12.8711L32.7246 3.57812H33.5215L33.3633 4.82617H33.4043C33.5879 4.58398 33.7891 4.36133 34.0078 4.1582C34.2305 3.95117 34.4727 3.78516 34.7344 3.66016C35 3.53516 35.2891 3.47266 35.6016 3.47266C35.9531 3.47266 36.2598 3.55664 36.5215 3.72461C36.7832 3.88867 36.9863 4.13477 37.1309 4.46289C37.2793 4.78711 37.3535 5.19141 37.3535 5.67578C37.3535 6.13672 37.3066 6.58594 37.2129 7.02344C37.123 7.45703 36.9902 7.86133 36.8145 8.23633C36.6387 8.60742 36.4219 8.93555 36.1641 9.2207C35.9102 9.50195 35.6191 9.72266 35.291 9.88281C34.9629 10.0391 34.6016 10.1172 34.207 10.1172C33.9062 10.1172 33.6465 10.0645 33.4277 9.95898C33.2129 9.84961 33.0312 9.70703 32.8828 9.53125C32.7383 9.35547 32.623 9.16602 32.5371 8.96289H32.4844C32.4688 9.10742 32.4434 9.29688 32.4082 9.53125C32.377 9.76172 32.3438 9.95508 32.3086 10.1113L31.7227 12.8711H30.7617ZM34.1367 9.30859C34.4102 9.30859 34.6602 9.24023 34.8867 9.10352C35.1172 8.9668 35.3223 8.78125 35.502 8.54688C35.6855 8.30859 35.8398 8.0332 35.9648 7.7207C36.0938 7.4082 36.1914 7.07617 36.2578 6.72461C36.3242 6.37305 36.3574 6.01562 36.3574 5.65234C36.3574 5.19922 36.2656 4.85742 36.082 4.62695C35.9023 4.39648 35.6328 4.28125 35.2734 4.28125C35.0859 4.28125 34.8965 4.32812 34.7051 4.42188C34.5137 4.51172 34.3281 4.64062 34.1484 4.80859C33.9688 4.97266 33.8008 5.16797 33.6445 5.39453C33.4883 5.62109 33.3516 5.87109 33.2344 6.14453C33.1211 6.41797 33.0312 6.70703 32.9648 7.01172C32.8984 7.31641 32.8652 7.62891 32.8652 7.94922C32.8652 8.35938 32.9688 8.68945 33.1758 8.93945C33.3867 9.18555 33.707 9.30859 34.1367 9.30859ZM38.2852 10L40.2305 0.882812H41.2031L39.2637 10H38.2852ZM41.332 10L42.6973 3.57812H43.6758L42.3105 10H41.332ZM43.5176 2.45312C43.3613 2.45312 43.2305 2.4082 43.125 2.31836C43.0234 2.22461 42.9727 2.09375 42.9727 1.92578C42.9727 1.79688 42.998 1.67578 43.0488 1.5625C43.1035 1.44922 43.1797 1.35938 43.2773 1.29297C43.3789 1.22266 43.502 1.1875 43.6465 1.1875C43.8184 1.1875 43.9473 1.23242 44.0332 1.32227C44.1191 1.41211 44.1621 1.53711 44.1621 1.69727C44.1621 1.92773 44.0957 2.11133 43.9629 2.24805C43.8301 2.38477 43.6816 2.45312 43.5176 2.45312ZM46.9922 10.1172C46.5156 10.1172 46.0977 10.0273 45.7383 9.84766C45.3828 9.66406 45.1055 9.39453 44.9062 9.03906C44.7109 8.68359 44.6133 8.24219 44.6133 7.71484C44.6133 7.25781 44.6621 6.81836 44.7598 6.39648C44.8613 5.97461 45.0078 5.58594 45.1992 5.23047C45.3906 4.875 45.623 4.56445 45.8965 4.29883C46.1699 4.0332 46.4805 3.82812 46.8281 3.68359C47.1797 3.53516 47.5625 3.46094 47.9766 3.46094C48.2539 3.46094 48.5293 3.48828 48.8027 3.54297C49.0801 3.59375 49.3301 3.66797 49.5527 3.76562L49.2773 4.58594C49.1133 4.50781 48.9199 4.4375 48.6973 4.375C48.4746 4.3125 48.2363 4.28125 47.9824 4.28125C47.627 4.28125 47.3027 4.37109 47.0098 4.55078C46.7207 4.73047 46.4707 4.98047 46.2598 5.30078C46.0527 5.61719 45.8926 5.98047 45.7793 6.39062C45.666 6.80078 45.6094 7.23828 45.6094 7.70312C45.6094 8.03516 45.668 8.32227 45.7852 8.56445C45.9023 8.80273 46.0703 8.98633 46.2891 9.11523C46.5117 9.24414 46.7773 9.30859 47.0859 9.30859C47.3711 9.30859 47.6387 9.26953 47.8887 9.19141C48.1426 9.11328 48.3906 9.01953 48.6328 8.91016V9.74219C48.418 9.85156 48.1719 9.94141 47.8945 10.0117C47.6211 10.082 47.3203 10.1172 46.9922 10.1172ZM51.7852 10.1172C51.4375 10.1172 51.1328 10.0332 50.8711 9.86523C50.6094 9.69727 50.4062 9.44922 50.2617 9.12109C50.1172 8.79297 50.0449 8.39258 50.0449 7.91992C50.0449 7.44727 50.0938 6.99219 50.1914 6.55469C50.293 6.11719 50.4355 5.71094 50.6191 5.33594C50.8027 4.96094 51.0234 4.63281 51.2812 4.35156C51.543 4.07031 51.8359 3.85156 52.1602 3.69531C52.4844 3.53906 52.834 3.46094 53.209 3.46094C53.498 3.46094 53.748 3.51562 53.959 3.625C54.1738 3.73438 54.3516 3.87891 54.4922 4.05859C54.6367 4.23438 54.75 4.42188 54.832 4.62109H54.8906L55.2656 3.57812H56.0098L54.6504 10H53.8711L54.0469 8.75781H54C53.8242 8.99219 53.623 9.21289 53.3965 9.41992C53.1699 9.62695 52.9219 9.79492 52.6523 9.92383C52.3828 10.0527 52.0938 10.1172 51.7852 10.1172ZM52.1016 9.30859C52.4023 9.30859 52.6992 9.19922 52.9922 8.98047C53.2891 8.75781 53.5547 8.45898 53.7891 8.08398C54.0273 7.70508 54.209 7.2793 54.334 6.80664C54.3965 6.57617 54.4375 6.36523 54.457 6.17383C54.4805 5.97852 54.4922 5.79688 54.4922 5.62891C54.4922 5.22656 54.3848 4.90234 54.1699 4.65625C53.959 4.40625 53.6699 4.28125 53.3027 4.28125C53.041 4.28125 52.7949 4.34766 52.5645 4.48047C52.334 4.60938 52.125 4.79102 51.9375 5.02539C51.7539 5.25586 51.5957 5.52539 51.4629 5.83398C51.3301 6.13867 51.2266 6.4707 51.1523 6.83008C51.082 7.18945 51.0469 7.55859 51.0469 7.9375C51.0469 8.38672 51.1387 8.72852 51.3223 8.96289C51.5059 9.19336 51.7656 9.30859 52.1016 9.30859ZM58.418 10.1172C57.9922 10.1172 57.6367 10.0156 57.3516 9.8125C57.0703 9.60547 56.9297 9.25195 56.9297 8.75195C56.9297 8.63086 56.9375 8.5 56.9531 8.35938C56.9688 8.21484 56.9941 8.06641 57.0293 7.91406L57.7852 4.32227H56.7949L56.8887 3.87109L57.9551 3.46094L58.6582 2.10156H59.2383L58.916 3.57812H60.5684L60.416 4.32227H58.7695L58.0078 7.92578C57.9805 8.03516 57.9551 8.15234 57.9316 8.27734C57.9121 8.40234 57.9023 8.52148 57.9023 8.63477C57.9023 8.83008 57.9531 8.99414 58.0547 9.12695C58.1562 9.25586 58.3262 9.32031 58.5645 9.32031C58.7129 9.32031 58.8535 9.30664 58.9863 9.2793C59.123 9.25195 59.2676 9.21289 59.4199 9.16211V9.91211C59.3223 9.95898 59.1738 10.0039 58.9746 10.0469C58.7793 10.0938 58.5938 10.1172 58.418 10.1172ZM60.5508 10L61.916 3.57812H62.8945L61.5293 10H60.5508ZM62.7363 2.45312C62.5801 2.45312 62.4492 2.4082 62.3438 2.31836C62.2422 2.22461 62.1914 2.09375 62.1914 1.92578C62.1914 1.79688 62.2168 1.67578 62.2676 1.5625C62.3223 1.44922 62.3984 1.35938 62.4961 1.29297C62.5977 1.22266 62.7207 1.1875 62.8652 1.1875C63.0371 1.1875 63.166 1.23242 63.252 1.32227C63.3379 1.41211 63.3809 1.53711 63.3809 1.69727C63.3809 1.92773 63.3145 2.11133 63.1816 2.24805C63.0488 2.38477 62.9004 2.45312 62.7363 2.45312ZM66.2051 10.0938C65.7129 10.0938 65.2891 9.99414 64.9336 9.79492C64.5781 9.5918 64.3047 9.30664 64.1133 8.93945C63.9258 8.56836 63.832 8.13086 63.832 7.62695C63.832 7.2207 63.877 6.82031 63.9668 6.42578C64.0566 6.02734 64.1895 5.65234 64.3652 5.30078C64.541 4.94531 64.7578 4.63281 65.0156 4.36328C65.2773 4.08984 65.5781 3.87695 65.918 3.72461C66.2578 3.56836 66.6367 3.49023 67.0547 3.49023C67.5547 3.49023 67.9805 3.5918 68.332 3.79492C68.6875 3.99414 68.959 4.2793 69.1465 4.65039C69.3379 5.02148 69.4336 5.46094 69.4336 5.96875C69.4336 6.36719 69.3887 6.76367 69.2988 7.1582C69.2129 7.55273 69.082 7.92773 68.9062 8.2832C68.7344 8.63477 68.5176 8.94727 68.2559 9.2207C67.998 9.49023 67.6973 9.70312 67.3535 9.85938C67.0137 10.0156 66.6309 10.0938 66.2051 10.0938ZM66.2637 9.28516C66.5059 9.28516 66.7363 9.23438 66.9551 9.13281C67.1738 9.03125 67.373 8.88477 67.5527 8.69336C67.7324 8.49805 67.8867 8.26172 68.0156 7.98438C68.1484 7.70312 68.25 7.38477 68.3203 7.0293C68.3945 6.67383 68.4316 6.2832 68.4316 5.85742C68.4316 5.60352 68.3867 5.35742 68.2969 5.11914C68.207 4.88086 68.0625 4.68555 67.8633 4.5332C67.6641 4.37695 67.3984 4.29883 67.0664 4.29883C66.793 4.29883 66.5391 4.35547 66.3047 4.46875C66.0742 4.58203 65.8672 4.74219 65.6836 4.94922C65.5 5.15625 65.3438 5.40039 65.2148 5.68164C65.0898 5.96289 64.9922 6.27148 64.9219 6.60742C64.8555 6.94336 64.8223 7.29688 64.8223 7.66797C64.8223 8.17969 64.9473 8.57812 65.1973 8.86328C65.4473 9.14453 65.8027 9.28516 66.2637 9.28516ZM70.3066 10L71.6836 3.54883H72.5449L72.3926 4.78516H72.4043C72.5527 4.58203 72.7305 4.37695 72.9375 4.16992C73.1484 3.95898 73.3926 3.7832 73.6699 3.64258C73.9512 3.49805 74.2695 3.42578 74.625 3.42578C74.9688 3.42578 75.2637 3.49023 75.5098 3.61914C75.7559 3.74414 75.9453 3.92773 76.0781 4.16992C76.2109 4.4082 76.2773 4.69727 76.2773 5.03711C76.2773 5.2168 76.2637 5.39844 76.2363 5.58203C76.209 5.76562 76.1797 5.92969 76.1484 6.07422L75.293 10H74.2559L75.123 5.94531C75.1582 5.76953 75.1855 5.61914 75.2051 5.49414C75.2285 5.36914 75.2402 5.25195 75.2402 5.14258C75.2402 4.86914 75.166 4.66211 75.0176 4.52148C74.8691 4.38086 74.6504 4.31055 74.3613 4.31055C74.0762 4.31055 73.7754 4.4082 73.459 4.60352C73.1426 4.79883 72.8496 5.10742 72.5801 5.5293C72.3105 5.94727 72.1016 6.49414 71.9531 7.16992L71.3496 10H70.3066ZM82.998 10.0938C82.5059 10.0938 82.082 9.99414 81.7266 9.79492C81.3711 9.5918 81.0977 9.30664 80.9062 8.93945C80.7188 8.56836 80.625 8.13086 80.625 7.62695C80.625 7.2207 80.6699 6.82031 80.7598 6.42578C80.8496 6.02734 80.9824 5.65234 81.1582 5.30078C81.334 4.94531 81.5508 4.63281 81.8086 4.36328C82.0703 4.08984 82.3711 3.87695 82.7109 3.72461C83.0508 3.56836 83.4297 3.49023 83.8477 3.49023C84.3477 3.49023 84.7734 3.5918 85.125 3.79492C85.4805 3.99414 85.752 4.2793 85.9395 4.65039C86.1309 5.02148 86.2266 5.46094 86.2266 5.96875C86.2266 6.36719 86.1816 6.76367 86.0918 7.1582C86.0059 7.55273 85.875 7.92773 85.6992 8.2832C85.5273 8.63477 85.3105 8.94727 85.0488 9.2207C84.791 9.49023 84.4902 9.70312 84.1465 9.85938C83.8066 10.0156 83.4238 10.0938 82.998 10.0938ZM83.0566 9.28516C83.2988 9.28516 83.5293 9.23438 83.748 9.13281C83.9668 9.03125 84.166 8.88477 84.3457 8.69336C84.5254 8.49805 84.6797 8.26172 84.8086 7.98438C84.9414 7.70312 85.043 7.38477 85.1133 7.0293C85.1875 6.67383 85.2246 6.2832 85.2246 5.85742C85.2246 5.60352 85.1797 5.35742 85.0898 5.11914C85 4.88086 84.8555 4.68555 84.6562 4.5332C84.457 4.37695 84.1914 4.29883 83.8594 4.29883C83.5859 4.29883 83.332 4.35547 83.0977 4.46875C82.8672 4.58203 82.6602 4.74219 82.4766 4.94922C82.293 5.15625 82.1367 5.40039 82.0078 5.68164C81.8828 5.96289 81.7852 6.27148 81.7148 6.60742C81.6484 6.94336 81.6152 7.29688 81.6152 7.66797C81.6152 8.17969 81.7402 8.57812 81.9902 8.86328C82.2402 9.14453 82.5957 9.28516 83.0566 9.28516ZM87.0996 10L88.4766 3.54883H89.3379L89.1855 4.78516H89.1973C89.3457 4.58203 89.5234 4.37695 89.7305 4.16992C89.9414 3.95898 90.1855 3.7832 90.4629 3.64258C90.7441 3.49805 91.0625 3.42578 91.418 3.42578C91.7617 3.42578 92.0566 3.49023 92.3027 3.61914C92.5488 3.74414 92.7383 3.92773 92.8711 4.16992C93.0039 4.4082 93.0703 4.69727 93.0703 5.03711C93.0703 5.2168 93.0566 5.39844 93.0293 5.58203C93.002 5.76562 92.9727 5.92969 92.9414 6.07422L92.0859 10H91.0488L91.916 5.94531C91.9512 5.76953 91.9785 5.61914 91.998 5.49414C92.0215 5.36914 92.0332 5.25195 92.0332 5.14258C92.0332 4.86914 91.959 4.66211 91.8105 4.52148C91.6621 4.38086 91.4434 4.31055 91.1543 4.31055C90.8691 4.31055 90.5684 4.4082 90.252 4.60352C89.9355 4.79883 89.6426 5.10742 89.373 5.5293C89.1035 5.94727 88.8945 6.49414 88.7461 7.16992L88.1426 10H87.0996ZM94.043 10L95.9883 0.882812H96.9609L95.0215 10H94.043ZM96.4102 12.8887C96.2188 12.8887 96.0645 12.877 95.9473 12.8535C95.8262 12.8301 95.709 12.8008 95.5957 12.7656V11.9746C95.7012 12.002 95.8184 12.0254 95.9473 12.0449C96.0762 12.0684 96.2129 12.0801 96.3574 12.0801C96.6777 12.0801 96.9531 11.9785 97.1836 11.7754C97.4141 11.5723 97.6387 11.2734 97.8574 10.8789L98.3086 10.0762L97.3242 3.57812H98.3086L98.7539 6.87695C98.793 7.13477 98.8242 7.41211 98.8477 7.70898C98.8711 8.00195 98.8887 8.28125 98.9004 8.54688C98.9121 8.80859 98.918 9.02148 98.918 9.18555H98.9531C99.0078 9.05664 99.0898 8.87109 99.1992 8.62891C99.3086 8.38281 99.4258 8.12695 99.5508 7.86133C99.6758 7.5957 99.7871 7.37305 99.8848 7.19336L101.812 3.57812H102.855L98.7422 11.1133C98.5312 11.5039 98.3145 11.8301 98.0918 12.0918C97.873 12.3574 97.6289 12.5566 97.3594 12.6895C97.0898 12.8223 96.7734 12.8887 96.4102 12.8887ZM104.795 12.8828C104.643 12.8828 104.502 12.8711 104.373 12.8477C104.244 12.8242 104.131 12.7949 104.033 12.7598V11.9336C104.139 11.9727 104.246 12.0039 104.355 12.0273C104.465 12.0547 104.582 12.0684 104.707 12.0684C104.996 12.0684 105.221 11.9531 105.381 11.7227C105.541 11.4922 105.67 11.1582 105.768 10.7207L107.115 4.32227H105.996L106.078 3.90625L107.268 3.54883L107.408 2.92773C107.498 2.5293 107.605 2.19531 107.73 1.92578C107.859 1.65234 108.01 1.43555 108.182 1.27539C108.354 1.11133 108.553 0.994141 108.779 0.923828C109.01 0.853516 109.273 0.818359 109.57 0.818359C109.766 0.818359 109.965 0.841797 110.168 0.888672C110.375 0.931641 110.543 0.982422 110.672 1.04102L110.42 1.78516C110.303 1.74219 110.178 1.70508 110.045 1.67383C109.912 1.63867 109.768 1.62109 109.611 1.62109C109.279 1.62109 109.018 1.71484 108.826 1.90234C108.639 2.08594 108.49 2.42969 108.381 2.93359L108.234 3.57812H109.617L109.477 4.32227H108.088L106.717 10.832C106.623 11.2617 106.496 11.6289 106.336 11.9336C106.176 12.2422 105.971 12.4766 105.721 12.6367C105.471 12.8008 105.162 12.8828 104.795 12.8828ZM112.107 10.0938C111.615 10.0938 111.191 9.99414 110.836 9.79492C110.48 9.5918 110.207 9.30664 110.016 8.93945C109.828 8.56836 109.734 8.13086 109.734 7.62695C109.734 7.2207 109.779 6.82031 109.869 6.42578C109.959 6.02734 110.092 5.65234 110.268 5.30078C110.443 4.94531 110.66 4.63281 110.918 4.36328C111.18 4.08984 111.48 3.87695 111.82 3.72461C112.16 3.56836 112.539 3.49023 112.957 3.49023C113.457 3.49023 113.883 3.5918 114.234 3.79492C114.59 3.99414 114.861 4.2793 115.049 4.65039C115.24 5.02148 115.336 5.46094 115.336 5.96875C115.336 6.36719 115.291 6.76367 115.201 7.1582C115.115 7.55273 114.984 7.92773 114.809 8.2832C114.637 8.63477 114.42 8.94727 114.158 9.2207C113.9 9.49023 113.6 9.70312 113.256 9.85938C112.916 10.0156 112.533 10.0938 112.107 10.0938ZM112.166 9.28516C112.408 9.28516 112.639 9.23438 112.857 9.13281C113.076 9.03125 113.275 8.88477 113.455 8.69336C113.635 8.49805 113.789 8.26172 113.918 7.98438C114.051 7.70312 114.152 7.38477 114.223 7.0293C114.297 6.67383 114.334 6.2832 114.334 5.85742C114.334 5.60352 114.289 5.35742 114.199 5.11914C114.109 4.88086 113.965 4.68555 113.766 4.5332C113.566 4.37695 113.301 4.29883 112.969 4.29883C112.695 4.29883 112.441 4.35547 112.207 4.46875C111.977 4.58203 111.77 4.74219 111.586 4.94922C111.402 5.15625 111.246 5.40039 111.117 5.68164C110.992 5.96289 110.895 6.27148 110.824 6.60742C110.758 6.94336 110.725 7.29688 110.725 7.66797C110.725 8.17969 110.85 8.57812 111.1 8.86328C111.35 9.14453 111.705 9.28516 112.166 9.28516ZM116.25 10L117.615 3.57812H118.412L118.26 4.82031H118.318C118.482 4.59766 118.658 4.38281 118.846 4.17578C119.033 3.96484 119.246 3.79297 119.484 3.66016C119.727 3.52734 120.004 3.46094 120.316 3.46094C120.434 3.46094 120.553 3.46875 120.674 3.48438C120.795 3.49609 120.908 3.51758 121.014 3.54883L120.803 4.42188C120.697 4.39844 120.594 4.38086 120.492 4.36914C120.395 4.35742 120.293 4.35156 120.188 4.35156C119.891 4.35156 119.615 4.42969 119.361 4.58594C119.107 4.73828 118.879 4.94336 118.676 5.20117C118.477 5.45898 118.307 5.74609 118.166 6.0625C118.029 6.37891 117.926 6.70117 117.855 7.0293L117.229 10H116.25ZM124.277 10L126.088 1.43359H127.963C128.838 1.43359 129.494 1.61523 129.932 1.97852C130.369 2.33789 130.588 2.87109 130.588 3.57812C130.588 4 130.516 4.38477 130.371 4.73242C130.227 5.07617 129.994 5.37305 129.674 5.62305C129.357 5.87305 128.941 6.06836 128.426 6.20898L129.832 10H128.754L127.512 6.42578H126.018L125.262 10H124.277ZM126.193 5.58203H127.23C127.625 5.58203 127.969 5.53711 128.262 5.44727C128.555 5.35352 128.797 5.22266 128.988 5.05469C129.184 4.88672 129.328 4.68359 129.422 4.44531C129.52 4.20703 129.568 3.94141 129.568 3.64844C129.568 3.15234 129.426 2.80273 129.141 2.59961C128.859 2.39648 128.434 2.29492 127.863 2.29492H126.902L126.193 5.58203ZM132.908 10.1172C132.584 10.1172 132.301 10.0566 132.059 9.93555C131.816 9.81445 131.629 9.63672 131.496 9.40234C131.367 9.16406 131.303 8.87305 131.303 8.5293C131.303 8.35742 131.314 8.19141 131.338 8.03125C131.365 7.86719 131.395 7.69727 131.426 7.52148L132.275 3.57812H133.26L132.387 7.63281C132.355 7.80078 132.33 7.95117 132.311 8.08398C132.295 8.21289 132.287 8.32812 132.287 8.42969C132.287 8.70703 132.357 8.92383 132.498 9.08008C132.643 9.23242 132.871 9.30859 133.184 9.30859C133.477 9.30859 133.783 9.20898 134.104 9.00977C134.428 8.81055 134.727 8.49805 135 8.07227C135.277 7.64258 135.488 7.08594 135.633 6.40234L136.23 3.57812H137.191L135.832 10H135.029L135.188 8.75781H135.135C134.986 8.96094 134.807 9.16797 134.596 9.37891C134.385 9.58594 134.141 9.76172 133.863 9.90625C133.586 10.0469 133.268 10.1172 132.908 10.1172ZM139.424 10.1172C139.033 10.1172 138.689 10.0781 138.393 10C138.1 9.92188 137.844 9.82422 137.625 9.70703V8.80469C137.832 8.92969 138.094 9.04688 138.41 9.15625C138.73 9.26562 139.059 9.32031 139.395 9.32031C139.727 9.32031 140.002 9.27539 140.221 9.18555C140.443 9.0957 140.609 8.97266 140.719 8.81641C140.832 8.65625 140.889 8.4707 140.889 8.25977C140.889 8.0918 140.852 7.94727 140.777 7.82617C140.707 7.70117 140.59 7.58008 140.426 7.46289C140.266 7.3457 140.051 7.21094 139.781 7.05859C139.48 6.89062 139.227 6.7207 139.02 6.54883C138.812 6.37695 138.654 6.18945 138.545 5.98633C138.439 5.7793 138.387 5.53906 138.387 5.26562C138.387 4.89844 138.477 4.58008 138.656 4.31055C138.836 4.04102 139.088 3.83203 139.412 3.68359C139.74 3.53516 140.123 3.46094 140.561 3.46094C140.947 3.46094 141.305 3.50586 141.633 3.5957C141.961 3.68164 142.244 3.78125 142.482 3.89453L142.166 4.67383C141.963 4.57617 141.73 4.48633 141.469 4.4043C141.207 4.32227 140.904 4.28125 140.561 4.28125C140.193 4.28125 139.9 4.36523 139.682 4.5332C139.467 4.70117 139.359 4.92773 139.359 5.21289C139.359 5.36133 139.391 5.49414 139.453 5.61133C139.52 5.72852 139.633 5.8457 139.793 5.96289C139.953 6.07617 140.172 6.20898 140.449 6.36133C140.719 6.51758 140.961 6.67773 141.176 6.8418C141.395 7.00195 141.566 7.1875 141.691 7.39844C141.82 7.60547 141.885 7.86133 141.885 8.16602C141.885 8.58398 141.785 8.93945 141.586 9.23242C141.387 9.52148 141.102 9.74219 140.73 9.89453C140.363 10.043 139.928 10.1172 139.424 10.1172ZM144.604 10.1172C144.213 10.1172 143.869 10.0781 143.572 10C143.279 9.92188 143.023 9.82422 142.805 9.70703V8.80469C143.012 8.92969 143.273 9.04688 143.59 9.15625C143.91 9.26562 144.238 9.32031 144.574 9.32031C144.906 9.32031 145.182 9.27539 145.4 9.18555C145.623 9.0957 145.789 8.97266 145.898 8.81641C146.012 8.65625 146.068 8.4707 146.068 8.25977C146.068 8.0918 146.031 7.94727 145.957 7.82617C145.887 7.70117 145.77 7.58008 145.605 7.46289C145.445 7.3457 145.23 7.21094 144.961 7.05859C144.66 6.89062 144.406 6.7207 144.199 6.54883C143.992 6.37695 143.834 6.18945 143.725 5.98633C143.619 5.7793 143.566 5.53906 143.566 5.26562C143.566 4.89844 143.656 4.58008 143.836 4.31055C144.016 4.04102 144.268 3.83203 144.592 3.68359C144.92 3.53516 145.303 3.46094 145.74 3.46094C146.127 3.46094 146.484 3.50586 146.812 3.5957C147.141 3.68164 147.424 3.78125 147.662 3.89453L147.346 4.67383C147.143 4.57617 146.91 4.48633 146.648 4.4043C146.387 4.32227 146.084 4.28125 145.74 4.28125C145.373 4.28125 145.08 4.36523 144.861 4.5332C144.646 4.70117 144.539 4.92773 144.539 5.21289C144.539 5.36133 144.57 5.49414 144.633 5.61133C144.699 5.72852 144.812 5.8457 144.973 5.96289C145.133 6.07617 145.352 6.20898 145.629 6.36133C145.898 6.51758 146.141 6.67773 146.355 6.8418C146.574 7.00195 146.746 7.1875 146.871 7.39844C147 7.60547 147.064 7.86133 147.064 8.16602C147.064 8.58398 146.965 8.93945 146.766 9.23242C146.566 9.52148 146.281 9.74219 145.91 9.89453C145.543 10.043 145.107 10.1172 144.604 10.1172ZM148.254 10L149.619 3.57812H150.598L149.232 10H148.254ZM150.439 2.45312C150.283 2.45312 150.152 2.4082 150.047 2.31836C149.945 2.22461 149.895 2.09375 149.895 1.92578C149.895 1.79688 149.92 1.67578 149.971 1.5625C150.025 1.44922 150.102 1.35938 150.199 1.29297C150.301 1.22266 150.424 1.1875 150.568 1.1875C150.74 1.1875 150.869 1.23242 150.955 1.32227C151.041 1.41211 151.084 1.53711 151.084 1.69727C151.084 1.92773 151.018 2.11133 150.885 2.24805C150.752 2.38477 150.604 2.45312 150.439 2.45312ZM153.27 10.1172C152.922 10.1172 152.617 10.0332 152.355 9.86523C152.094 9.69727 151.891 9.44922 151.746 9.12109C151.602 8.79297 151.529 8.39258 151.529 7.91992C151.529 7.44727 151.578 6.99219 151.676 6.55469C151.777 6.11719 151.92 5.71094 152.104 5.33594C152.287 4.96094 152.508 4.63281 152.766 4.35156C153.027 4.07031 153.32 3.85156 153.645 3.69531C153.969 3.53906 154.318 3.46094 154.693 3.46094C154.982 3.46094 155.232 3.51562 155.443 3.625C155.658 3.73438 155.836 3.87891 155.977 4.05859C156.121 4.23438 156.234 4.42188 156.316 4.62109H156.375L156.75 3.57812H157.494L156.135 10H155.355L155.531 8.75781H155.484C155.309 8.99219 155.107 9.21289 154.881 9.41992C154.654 9.62695 154.406 9.79492 154.137 9.92383C153.867 10.0527 153.578 10.1172 153.27 10.1172ZM153.586 9.30859C153.887 9.30859 154.184 9.19922 154.477 8.98047C154.773 8.75781 155.039 8.45898 155.273 8.08398C155.512 7.70508 155.693 7.2793 155.818 6.80664C155.881 6.57617 155.922 6.36523 155.941 6.17383C155.965 5.97852 155.977 5.79688 155.977 5.62891C155.977 5.22656 155.869 4.90234 155.654 4.65625C155.443 4.40625 155.154 4.28125 154.787 4.28125C154.525 4.28125 154.279 4.34766 154.049 4.48047C153.818 4.60938 153.609 4.79102 153.422 5.02539C153.238 5.25586 153.08 5.52539 152.947 5.83398C152.814 6.13867 152.711 6.4707 152.637 6.83008C152.566 7.18945 152.531 7.55859 152.531 7.9375C152.531 8.38672 152.623 8.72852 152.807 8.96289C152.99 9.19336 153.25 9.30859 153.586 9.30859ZM158.033 10L159.41 3.54883H160.271L160.119 4.78516H160.131C160.279 4.58203 160.457 4.37695 160.664 4.16992C160.875 3.95898 161.119 3.7832 161.396 3.64258C161.678 3.49805 161.996 3.42578 162.352 3.42578C162.695 3.42578 162.99 3.49023 163.236 3.61914C163.482 3.74414 163.672 3.92773 163.805 4.16992C163.938 4.4082 164.004 4.69727 164.004 5.03711C164.004 5.2168 163.99 5.39844 163.963 5.58203C163.936 5.76562 163.906 5.92969 163.875 6.07422L163.02 10H161.982L162.85 5.94531C162.885 5.76953 162.912 5.61914 162.932 5.49414C162.955 5.36914 162.967 5.25195 162.967 5.14258C162.967 4.86914 162.893 4.66211 162.744 4.52148C162.596 4.38086 162.377 4.31055 162.088 4.31055C161.803 4.31055 161.502 4.4082 161.186 4.60352C160.869 4.79883 160.576 5.10742 160.307 5.5293C160.037 5.94727 159.828 6.49414 159.68 7.16992L159.076 10H158.033ZM168.094 10L170.039 0.882812H171.012L169.072 10H168.094ZM173.121 10.1172C172.773 10.1172 172.469 10.0332 172.207 9.86523C171.945 9.69727 171.742 9.44922 171.598 9.12109C171.453 8.79297 171.381 8.39258 171.381 7.91992C171.381 7.44727 171.43 6.99219 171.527 6.55469C171.629 6.11719 171.771 5.71094 171.955 5.33594C172.139 4.96094 172.359 4.63281 172.617 4.35156C172.879 4.07031 173.172 3.85156 173.496 3.69531C173.82 3.53906 174.17 3.46094 174.545 3.46094C174.834 3.46094 175.084 3.51562 175.295 3.625C175.51 3.73438 175.688 3.87891 175.828 4.05859C175.973 4.23438 176.086 4.42188 176.168 4.62109H176.227L176.602 3.57812H177.346L175.986 10H175.207L175.383 8.75781H175.336C175.16 8.99219 174.959 9.21289 174.732 9.41992C174.506 9.62695 174.258 9.79492 173.988 9.92383C173.719 10.0527 173.43 10.1172 173.121 10.1172ZM173.438 9.30859C173.738 9.30859 174.035 9.19922 174.328 8.98047C174.625 8.75781 174.891 8.45898 175.125 8.08398C175.363 7.70508 175.545 7.2793 175.67 6.80664C175.732 6.57617 175.773 6.36523 175.793 6.17383C175.816 5.97852 175.828 5.79688 175.828 5.62891C175.828 5.22656 175.721 4.90234 175.506 4.65625C175.295 4.40625 175.006 4.28125 174.639 4.28125C174.377 4.28125 174.131 4.34766 173.9 4.48047C173.67 4.60938 173.461 4.79102 173.273 5.02539C173.09 5.25586 172.932 5.52539 172.799 5.83398C172.666 6.13867 172.562 6.4707 172.488 6.83008C172.418 7.18945 172.383 7.55859 172.383 7.9375C172.383 8.38672 172.475 8.72852 172.658 8.96289C172.842 9.19336 173.102 9.30859 173.438 9.30859ZM177.885 10L179.262 3.54883H180.123L179.971 4.78516H179.982C180.131 4.58203 180.309 4.37695 180.516 4.16992C180.727 3.95898 180.971 3.7832 181.248 3.64258C181.529 3.49805 181.848 3.42578 182.203 3.42578C182.547 3.42578 182.842 3.49023 183.088 3.61914C183.334 3.74414 183.523 3.92773 183.656 4.16992C183.789 4.4082 183.855 4.69727 183.855 5.03711C183.855 5.2168 183.842 5.39844 183.814 5.58203C183.787 5.76562 183.758 5.92969 183.727 6.07422L182.871 10H181.834L182.701 5.94531C182.736 5.76953 182.764 5.61914 182.783 5.49414C182.807 5.36914 182.818 5.25195 182.818 5.14258C182.818 4.86914 182.744 4.66211 182.596 4.52148C182.447 4.38086 182.229 4.31055 181.939 4.31055C181.654 4.31055 181.354 4.4082 181.037 4.60352C180.721 4.79883 180.428 5.10742 180.158 5.5293C179.889 5.94727 179.68 6.49414 179.531 7.16992L178.928 10H177.885ZM186.357 12.8828C185.604 12.8828 185.014 12.7383 184.588 12.4492C184.162 12.1641 183.949 11.7617 183.949 11.2422C183.949 10.8242 184.092 10.4609 184.377 10.1523C184.658 9.84766 185.111 9.5918 185.736 9.38477C185.588 9.30664 185.475 9.20898 185.396 9.0918C185.322 8.9707 185.285 8.83203 185.285 8.67578C185.285 8.41016 185.383 8.18164 185.578 7.99023C185.773 7.79492 186.047 7.61523 186.398 7.45117C186.148 7.32227 185.947 7.13281 185.795 6.88281C185.643 6.63281 185.566 6.3457 185.566 6.02148C185.57 5.63477 185.637 5.28125 185.766 4.96094C185.895 4.64062 186.076 4.36719 186.311 4.14062C186.529 3.92969 186.785 3.76562 187.078 3.64844C187.375 3.53125 187.697 3.47266 188.045 3.47266C188.193 3.47266 188.342 3.48242 188.49 3.50195C188.639 3.52148 188.785 3.55078 188.93 3.58984H191.098L190.957 4.18164L189.686 4.31055C189.775 4.43164 189.842 4.57422 189.885 4.73828C189.932 4.90234 189.953 5.08398 189.949 5.2832C189.949 5.66602 189.885 6.01172 189.756 6.32031C189.627 6.62891 189.443 6.89062 189.205 7.10547C188.99 7.29688 188.734 7.44531 188.438 7.55078C188.145 7.65234 187.816 7.70508 187.453 7.70898C187.348 7.70898 187.254 7.70508 187.172 7.69727C187.09 7.68945 187.02 7.67773 186.961 7.66211C186.676 7.76367 186.465 7.88281 186.328 8.01953C186.191 8.15625 186.123 8.30078 186.123 8.45312C186.123 8.5625 186.156 8.65039 186.223 8.7168C186.285 8.77539 186.371 8.82031 186.48 8.85156C186.594 8.87891 186.732 8.90234 186.896 8.92188L187.588 8.99805C188.057 9.05273 188.439 9.14648 188.736 9.2793C189.033 9.4082 189.252 9.58398 189.393 9.80664C189.533 10.0293 189.604 10.3047 189.604 10.6328C189.604 11.0469 189.508 11.4043 189.316 11.7051C189.125 12.0098 188.85 12.2578 188.49 12.4492C188.217 12.5898 187.9 12.6973 187.541 12.7715C187.186 12.8457 186.791 12.8828 186.357 12.8828ZM186.398 12.1738C186.754 12.1738 187.07 12.1426 187.348 12.0801C187.629 12.0176 187.867 11.9277 188.062 11.8105C188.273 11.6816 188.434 11.5254 188.543 11.3418C188.656 11.1582 188.713 10.9473 188.713 10.709C188.713 10.6035 188.695 10.5078 188.66 10.4219C188.629 10.3359 188.578 10.2598 188.508 10.1934C188.398 10.0879 188.242 10.002 188.039 9.93555C187.836 9.86914 187.578 9.82227 187.266 9.79492L186.328 9.70117C186 9.77148 185.725 9.875 185.502 10.0117C185.283 10.1523 185.117 10.3184 185.004 10.5098C184.891 10.7012 184.834 10.916 184.834 11.1543C184.834 11.4746 184.967 11.7246 185.232 11.9043C185.498 12.084 185.887 12.1738 186.398 12.1738ZM187.494 7.06445C187.83 7.06445 188.113 6.98047 188.344 6.8125C188.578 6.64062 188.758 6.41406 188.883 6.13281C189.008 5.84766 189.07 5.53711 189.07 5.20117C189.07 5.0332 189.047 4.88477 189 4.75586C188.957 4.62305 188.891 4.51367 188.801 4.42773C188.715 4.33789 188.605 4.26953 188.473 4.22266C188.344 4.17578 188.195 4.15234 188.027 4.15234C187.781 4.15234 187.561 4.20117 187.365 4.29883C187.17 4.39258 187.004 4.52344 186.867 4.69141C186.734 4.85938 186.631 5.05469 186.557 5.27734C186.486 5.5 186.451 5.73828 186.451 5.99219C186.451 6.15625 186.473 6.30273 186.516 6.43164C186.559 6.56055 186.621 6.66992 186.703 6.75977C186.883 6.96289 187.146 7.06445 187.494 7.06445ZM193.002 10.1172C192.678 10.1172 192.395 10.0566 192.152 9.93555C191.91 9.81445 191.723 9.63672 191.59 9.40234C191.461 9.16406 191.396 8.87305 191.396 8.5293C191.396 8.35742 191.408 8.19141 191.432 8.03125C191.459 7.86719 191.488 7.69727 191.52 7.52148L192.369 3.57812H193.354L192.48 7.63281C192.449 7.80078 192.424 7.95117 192.404 8.08398C192.389 8.21289 192.381 8.32812 192.381 8.42969C192.381 8.70703 192.451 8.92383 192.592 9.08008C192.736 9.23242 192.965 9.30859 193.277 9.30859C193.57 9.30859 193.877 9.20898 194.197 9.00977C194.521 8.81055 194.82 8.49805 195.094 8.07227C195.371 7.64258 195.582 7.08594 195.727 6.40234L196.324 3.57812H197.285L195.926 10H195.123L195.281 8.75781H195.229C195.08 8.96094 194.9 9.16797 194.689 9.37891C194.479 9.58594 194.234 9.76172 193.957 9.90625C193.68 10.0469 193.361 10.1172 193.002 10.1172ZM199.969 10.1172C199.621 10.1172 199.316 10.0332 199.055 9.86523C198.793 9.69727 198.59 9.44922 198.445 9.12109C198.301 8.79297 198.229 8.39258 198.229 7.91992C198.229 7.44727 198.277 6.99219 198.375 6.55469C198.477 6.11719 198.619 5.71094 198.803 5.33594C198.986 4.96094 199.207 4.63281 199.465 4.35156C199.727 4.07031 200.02 3.85156 200.344 3.69531C200.668 3.53906 201.018 3.46094 201.393 3.46094C201.682 3.46094 201.932 3.51562 202.143 3.625C202.357 3.73438 202.535 3.87891 202.676 4.05859C202.82 4.23438 202.934 4.42188 203.016 4.62109H203.074L203.449 3.57812H204.193L202.834 10H202.055L202.23 8.75781H202.184C202.008 8.99219 201.807 9.21289 201.58 9.41992C201.354 9.62695 201.105 9.79492 200.836 9.92383C200.566 10.0527 200.277 10.1172 199.969 10.1172ZM200.285 9.30859C200.586 9.30859 200.883 9.19922 201.176 8.98047C201.473 8.75781 201.738 8.45898 201.973 8.08398C202.211 7.70508 202.393 7.2793 202.518 6.80664C202.58 6.57617 202.621 6.36523 202.641 6.17383C202.664 5.97852 202.676 5.79688 202.676 5.62891C202.676 5.22656 202.568 4.90234 202.354 4.65625C202.143 4.40625 201.854 4.28125 201.486 4.28125C201.225 4.28125 200.979 4.34766 200.748 4.48047C200.518 4.60938 200.309 4.79102 200.121 5.02539C199.938 5.25586 199.779 5.52539 199.646 5.83398C199.514 6.13867 199.41 6.4707 199.336 6.83008C199.266 7.18945 199.23 7.55859 199.23 7.9375C199.23 8.38672 199.322 8.72852 199.506 8.96289C199.689 9.19336 199.949 9.30859 200.285 9.30859ZM206.291 12.8828C205.537 12.8828 204.947 12.7383 204.521 12.4492C204.096 12.1641 203.883 11.7617 203.883 11.2422C203.883 10.8242 204.025 10.4609 204.311 10.1523C204.592 9.84766 205.045 9.5918 205.67 9.38477C205.521 9.30664 205.408 9.20898 205.33 9.0918C205.256 8.9707 205.219 8.83203 205.219 8.67578C205.219 8.41016 205.316 8.18164 205.512 7.99023C205.707 7.79492 205.98 7.61523 206.332 7.45117C206.082 7.32227 205.881 7.13281 205.729 6.88281C205.576 6.63281 205.5 6.3457 205.5 6.02148C205.504 5.63477 205.57 5.28125 205.699 4.96094C205.828 4.64062 206.01 4.36719 206.244 4.14062C206.463 3.92969 206.719 3.76562 207.012 3.64844C207.309 3.53125 207.631 3.47266 207.979 3.47266C208.127 3.47266 208.275 3.48242 208.424 3.50195C208.572 3.52148 208.719 3.55078 208.863 3.58984H211.031L210.891 4.18164L209.619 4.31055C209.709 4.43164 209.775 4.57422 209.818 4.73828C209.865 4.90234 209.887 5.08398 209.883 5.2832C209.883 5.66602 209.818 6.01172 209.689 6.32031C209.561 6.62891 209.377 6.89062 209.139 7.10547C208.924 7.29688 208.668 7.44531 208.371 7.55078C208.078 7.65234 207.75 7.70508 207.387 7.70898C207.281 7.70898 207.188 7.70508 207.105 7.69727C207.023 7.68945 206.953 7.67773 206.895 7.66211C206.609 7.76367 206.398 7.88281 206.262 8.01953C206.125 8.15625 206.057 8.30078 206.057 8.45312C206.057 8.5625 206.09 8.65039 206.156 8.7168C206.219 8.77539 206.305 8.82031 206.414 8.85156C206.527 8.87891 206.666 8.90234 206.83 8.92188L207.521 8.99805C207.99 9.05273 208.373 9.14648 208.67 9.2793C208.967 9.4082 209.186 9.58398 209.326 9.80664C209.467 10.0293 209.537 10.3047 209.537 10.6328C209.537 11.0469 209.441 11.4043 209.25 11.7051C209.059 12.0098 208.783 12.2578 208.424 12.4492C208.15 12.5898 207.834 12.6973 207.475 12.7715C207.119 12.8457 206.725 12.8828 206.291 12.8828ZM206.332 12.1738C206.688 12.1738 207.004 12.1426 207.281 12.0801C207.562 12.0176 207.801 11.9277 207.996 11.8105C208.207 11.6816 208.367 11.5254 208.477 11.3418C208.59 11.1582 208.646 10.9473 208.646 10.709C208.646 10.6035 208.629 10.5078 208.594 10.4219C208.562 10.3359 208.512 10.2598 208.441 10.1934C208.332 10.0879 208.176 10.002 207.973 9.93555C207.77 9.86914 207.512 9.82227 207.199 9.79492L206.262 9.70117C205.934 9.77148 205.658 9.875 205.436 10.0117C205.217 10.1523 205.051 10.3184 204.938 10.5098C204.824 10.7012 204.768 10.916 204.768 11.1543C204.768 11.4746 204.9 11.7246 205.166 11.9043C205.432 12.084 205.82 12.1738 206.332 12.1738ZM207.428 7.06445C207.764 7.06445 208.047 6.98047 208.277 6.8125C208.512 6.64062 208.691 6.41406 208.816 6.13281C208.941 5.84766 209.004 5.53711 209.004 5.20117C209.004 5.0332 208.98 4.88477 208.934 4.75586C208.891 4.62305 208.824 4.51367 208.734 4.42773C208.648 4.33789 208.539 4.26953 208.406 4.22266C208.277 4.17578 208.129 4.15234 207.961 4.15234C207.715 4.15234 207.494 4.20117 207.299 4.29883C207.104 4.39258 206.938 4.52344 206.801 4.69141C206.668 4.85938 206.564 5.05469 206.49 5.27734C206.42 5.5 206.385 5.73828 206.385 5.99219C206.385 6.15625 206.406 6.30273 206.449 6.43164C206.492 6.56055 206.555 6.66992 206.637 6.75977C206.816 6.96289 207.08 7.06445 207.428 7.06445ZM213.58 10.1172C213.1 10.1172 212.686 10.0215 212.338 9.83008C211.99 9.63477 211.723 9.35742 211.535 8.99805C211.352 8.63477 211.26 8.20117 211.26 7.69727C211.26 7.17773 211.334 6.66797 211.482 6.16797C211.635 5.66406 211.852 5.20898 212.133 4.80273C212.414 4.39258 212.752 4.06641 213.146 3.82422C213.545 3.58203 213.99 3.46094 214.482 3.46094C215.072 3.46094 215.52 3.59375 215.824 3.85938C216.129 4.12109 216.281 4.48242 216.281 4.94336C216.281 5.26758 216.205 5.56641 216.053 5.83984C215.904 6.11328 215.674 6.35156 215.361 6.55469C215.053 6.75391 214.66 6.91016 214.184 7.02344C213.711 7.13281 213.15 7.1875 212.502 7.1875H212.279C212.271 7.25781 212.264 7.33594 212.256 7.42188C212.252 7.50781 212.25 7.58789 212.25 7.66211C212.25 8.17773 212.375 8.58203 212.625 8.875C212.875 9.16406 213.25 9.30859 213.75 9.30859C214.059 9.30859 214.35 9.26562 214.623 9.17969C214.9 9.08984 215.189 8.97266 215.49 8.82812V9.66602C215.201 9.79883 214.91 9.9082 214.617 9.99414C214.324 10.0762 213.979 10.1172 213.58 10.1172ZM212.42 6.39062H212.561C213.061 6.39062 213.52 6.34766 213.938 6.26172C214.355 6.17188 214.691 6.02734 214.945 5.82812C215.199 5.625 215.326 5.35547 215.326 5.01953C215.326 4.80078 215.252 4.62109 215.104 4.48047C214.955 4.33984 214.729 4.26953 214.424 4.26953C214.154 4.26953 213.889 4.35352 213.627 4.52148C213.365 4.68555 213.127 4.92578 212.912 5.24219C212.701 5.55859 212.537 5.94141 212.42 6.39062ZM1.61719 27.8984C1.4375 27.5742 1.2832 27.2266 1.1543 26.8555C1.02539 26.4883 0.927734 26.1016 0.861328 25.6953C0.794922 25.2852 0.761719 24.8613 0.761719 24.4238C0.761719 23.709 0.828125 23.0312 0.960938 22.3906C1.09375 21.75 1.28711 21.1426 1.54102 20.5684C1.79492 19.9941 2.10352 19.4473 2.4668 18.9277C2.83398 18.4082 3.25 17.9102 3.71484 17.4336H4.62305C4.19336 17.9023 3.79883 18.4004 3.43945 18.9277C3.08398 19.4551 2.77539 20.0098 2.51367 20.5918C2.25195 21.1738 2.04883 21.7832 1.9043 22.4199C1.76367 23.0566 1.69336 23.7207 1.69336 24.4121C1.69336 24.8691 1.71875 25.3027 1.76953 25.7129C1.82422 26.1191 1.90234 26.502 2.00391 26.8613C2.10938 27.2246 2.23633 27.5703 2.38477 27.8984H1.61719ZM4.21875 26L6.0293 17.4336H11.8945L10.084 26H9.08789L10.7109 18.3125H6.83203L5.20312 26H4.21875ZM11.6016 28.8711L13.5645 19.5781H14.3613L14.2031 20.8262H14.2441C14.4277 20.584 14.6289 20.3613 14.8477 20.1582C15.0703 19.9512 15.3125 19.7852 15.5742 19.6602C15.8398 19.5352 16.1289 19.4727 16.4414 19.4727C16.793 19.4727 17.0996 19.5566 17.3613 19.7246C17.623 19.8887 17.8262 20.1348 17.9707 20.4629C18.1191 20.7871 18.1934 21.1914 18.1934 21.6758C18.1934 22.1367 18.1465 22.5859 18.0527 23.0234C17.9629 23.457 17.8301 23.8613 17.6543 24.2363C17.4785 24.6074 17.2617 24.9355 17.0039 25.2207C16.75 25.502 16.459 25.7227 16.1309 25.8828C15.8027 26.0391 15.4414 26.1172 15.0469 26.1172C14.7461 26.1172 14.4863 26.0645 14.2676 25.959C14.0527 25.8496 13.8711 25.707 13.7227 25.5312C13.5781 25.3555 13.4629 25.166 13.377 24.9629H13.3242C13.3086 25.1074 13.2832 25.2969 13.248 25.5312C13.2168 25.7617 13.1836 25.9551 13.1484 26.1113L12.5625 28.8711H11.6016ZM14.9766 25.3086C15.25 25.3086 15.5 25.2402 15.7266 25.1035C15.957 24.9668 16.1621 24.7812 16.3418 24.5469C16.5254 24.3086 16.6797 24.0332 16.8047 23.7207C16.9336 23.4082 17.0312 23.0762 17.0977 22.7246C17.1641 22.373 17.1973 22.0156 17.1973 21.6523C17.1973 21.1992 17.1055 20.8574 16.9219 20.627C16.7422 20.3965 16.4727 20.2812 16.1133 20.2812C15.9258 20.2812 15.7363 20.3281 15.5449 20.4219C15.3535 20.5117 15.168 20.6406 14.9883 20.8086C14.8086 20.9727 14.6406 21.168 14.4844 21.3945C14.3281 21.6211 14.1914 21.8711 14.0742 22.1445C13.9609 22.418 13.8711 22.707 13.8047 23.0117C13.7383 23.3164 13.7051 23.6289 13.7051 23.9492C13.7051 24.3594 13.8086 24.6895 14.0156 24.9395C14.2266 25.1855 14.5469 25.3086 14.9766 25.3086ZM21.0645 26.1172C20.7402 26.1172 20.457 26.0566 20.2148 25.9355C19.9727 25.8145 19.7852 25.6367 19.6523 25.4023C19.5234 25.1641 19.459 24.873 19.459 24.5293C19.459 24.3574 19.4707 24.1914 19.4941 24.0312C19.5215 23.8672 19.5508 23.6973 19.582 23.5215L20.4316 19.5781H21.416L20.543 23.6328C20.5117 23.8008 20.4863 23.9512 20.4668 24.084C20.4512 24.2129 20.4434 24.3281 20.4434 24.4297C20.4434 24.707 20.5137 24.9238 20.6543 25.0801C20.7988 25.2324 21.0273 25.3086 21.3398 25.3086C21.6328 25.3086 21.9395 25.209 22.2598 25.0098C22.584 24.8105 22.8828 24.498 23.1562 24.0723C23.4336 23.6426 23.6445 23.0859 23.7891 22.4023L24.3867 19.5781H25.3477L23.9883 26H23.1855L23.3438 24.7578H23.291C23.1426 24.9609 22.9629 25.168 22.752 25.3789C22.541 25.5859 22.2969 25.7617 22.0195 25.9062C21.7422 26.0469 21.4238 26.1172 21.0645 26.1172ZM25.6582 26.0762C25.5605 26.0762 25.4688 26.0664 25.3828 26.0469C25.2969 26.0312 25.2305 26.0156 25.1836 26V25.1562C25.2383 25.1797 25.2988 25.1973 25.3652 25.209C25.4277 25.2207 25.4961 25.2266 25.5703 25.2266C25.7656 25.2266 25.9395 25.1797 26.0918 25.0859C26.2441 24.9922 26.3848 24.8438 26.5137 24.6406C26.6465 24.4375 26.7773 24.1719 26.9062 23.8438C27.0391 23.5156 27.1836 23.1172 27.3398 22.6484C27.5234 22.1133 27.6992 21.6484 27.8672 21.2539C28.0391 20.8594 28.2305 20.5352 28.4414 20.2812C28.6562 20.0234 28.916 19.832 29.2207 19.707C29.5293 19.582 29.9121 19.5195 30.3691 19.5195C30.6309 19.5195 30.8828 19.5371 31.125 19.5723C31.3672 19.6074 31.5898 19.6523 31.793 19.707L30.4453 26H29.4609L30.6797 20.3926C30.625 20.3809 30.5566 20.3711 30.4746 20.3633C30.3965 20.3516 30.3105 20.3457 30.2168 20.3457C29.877 20.3457 29.5996 20.4238 29.3848 20.5801C29.1738 20.7324 28.9805 21 28.8047 21.3828C28.6328 21.7617 28.4297 22.293 28.1953 22.9766C28.0195 23.4883 27.8496 23.9375 27.6855 24.3242C27.5254 24.7109 27.3535 25.0352 27.1699 25.2969C26.9902 25.5547 26.7773 25.75 26.5312 25.8828C26.2891 26.0117 25.998 26.0762 25.6582 26.0762ZM35.1387 26.0938C34.6465 26.0938 34.2227 25.9941 33.8672 25.7949C33.5117 25.5918 33.2383 25.3066 33.0469 24.9395C32.8594 24.5684 32.7656 24.1309 32.7656 23.627C32.7656 23.2207 32.8105 22.8203 32.9004 22.4258C32.9902 22.0273 33.123 21.6523 33.2988 21.3008C33.4746 20.9453 33.6914 20.6328 33.9492 20.3633C34.2109 20.0898 34.5117 19.877 34.8516 19.7246C35.1914 19.5684 35.5703 19.4902 35.9883 19.4902C36.4883 19.4902 36.9141 19.5918 37.2656 19.7949C37.6211 19.9941 37.8926 20.2793 38.0801 20.6504C38.2715 21.0215 38.3672 21.4609 38.3672 21.9688C38.3672 22.3672 38.3223 22.7637 38.2324 23.1582C38.1465 23.5527 38.0156 23.9277 37.8398 24.2832C37.668 24.6348 37.4512 24.9473 37.1895 25.2207C36.9316 25.4902 36.6309 25.7031 36.2871 25.8594C35.9473 26.0156 35.5645 26.0938 35.1387 26.0938ZM35.1973 25.2852C35.4395 25.2852 35.6699 25.2344 35.8887 25.1328C36.1074 25.0312 36.3066 24.8848 36.4863 24.6934C36.666 24.498 36.8203 24.2617 36.9492 23.9844C37.082 23.7031 37.1836 23.3848 37.2539 23.0293C37.3281 22.6738 37.3652 22.2832 37.3652 21.8574C37.3652 21.6035 37.3203 21.3574 37.2305 21.1191C37.1406 20.8809 36.9961 20.6855 36.7969 20.5332C36.5977 20.377 36.332 20.2988 36 20.2988C35.7266 20.2988 35.4727 20.3555 35.2383 20.4688C35.0078 20.582 34.8008 20.7422 34.6172 20.9492C34.4336 21.1562 34.2773 21.4004 34.1484 21.6816C34.0234 21.9629 33.9258 22.2715 33.8555 22.6074C33.7891 22.9434 33.7559 23.2969 33.7559 23.668C33.7559 24.1797 33.8809 24.5781 34.1309 24.8633C34.3809 25.1445 34.7363 25.2852 35.1973 25.2852ZM39.4453 26.1172C39.3359 26.1172 39.2188 26.1094 39.0938 26.0938C38.9688 26.0781 38.8555 26.0566 38.7539 26.0293L38.9004 25.2324C38.9746 25.252 39.0625 25.2695 39.1641 25.2852C39.2656 25.3008 39.3633 25.3086 39.457 25.3086C39.7461 25.3086 40.0059 25.2422 40.2363 25.1094C40.4707 24.9727 40.6758 24.7891 40.8516 24.5586C41.0273 24.3281 41.1738 24.0684 41.291 23.7793C41.4121 23.4863 41.502 23.1816 41.5605 22.8652C41.6191 22.5488 41.6484 22.2383 41.6484 21.9336C41.6484 21.4453 41.5547 21.0488 41.3672 20.7441C41.1797 20.4355 40.877 20.2812 40.459 20.2812C40.3418 20.2812 40.2305 20.2891 40.125 20.3047C40.0195 20.3164 39.9121 20.3359 39.8027 20.3633V19.5547C39.916 19.5352 40.041 19.5156 40.1777 19.4961C40.3184 19.4727 40.459 19.4609 40.5996 19.4609C41.2754 19.4609 41.7832 19.6758 42.123 20.1055C42.4629 20.5352 42.6328 21.1367 42.6328 21.9102C42.6328 21.9844 42.6309 22.0625 42.627 22.1445C42.623 22.2227 42.6172 22.2969 42.6094 22.3672H43.5938L44.1855 19.5781H45.082L44.4844 22.3672H45.4277C45.498 22.0391 45.6074 21.7051 45.7559 21.3652C45.9082 21.0254 46.1055 20.7129 46.3477 20.4277C46.5898 20.1387 46.8828 19.9062 47.2266 19.7305C47.5703 19.5508 47.9707 19.4609 48.4277 19.4609C48.5605 19.4609 48.6914 19.4688 48.8203 19.4844C48.9492 19.4961 49.0801 19.5195 49.2129 19.5547L49.0312 20.3516C48.9453 20.3281 48.8477 20.3105 48.7383 20.2988C48.6328 20.2871 48.5312 20.2812 48.4336 20.2812C48.1445 20.2812 47.8848 20.3496 47.6543 20.4863C47.4238 20.6191 47.2227 20.8008 47.0508 21.0312C46.8789 21.2617 46.7363 21.5234 46.623 21.8164C46.5098 22.1055 46.4238 22.4082 46.3652 22.7246C46.3105 23.0371 46.2832 23.3438 46.2832 23.6445C46.2832 24.1328 46.3711 24.5332 46.5469 24.8457C46.7266 25.1543 47.0293 25.3086 47.4551 25.3086C47.5879 25.3086 47.7012 25.3008 47.7949 25.2852C47.8926 25.2695 47.9941 25.248 48.0996 25.2207V26.0293C48.0059 26.0449 47.8887 26.0625 47.748 26.082C47.6074 26.1055 47.4648 26.1172 47.3203 26.1172C46.875 26.1172 46.5 26.0215 46.1953 25.8301C45.8945 25.6387 45.668 25.3613 45.5156 24.998C45.3633 24.6309 45.2871 24.1875 45.2871 23.668C45.2871 23.5781 45.2891 23.4883 45.293 23.3984C45.2969 23.3047 45.3047 23.2129 45.3164 23.123H44.3262L43.7227 26H42.832L43.4473 23.123H42.498C42.4199 23.4902 42.2988 23.8516 42.1348 24.207C41.9746 24.5586 41.7695 24.8789 41.5195 25.168C41.2734 25.457 40.9766 25.6875 40.6289 25.8594C40.2852 26.0312 39.8906 26.1172 39.4453 26.1172ZM51.8145 26.1172C51.334 26.1172 50.9199 26.0215 50.5723 25.8301C50.2246 25.6348 49.957 25.3574 49.7695 24.998C49.5859 24.6348 49.4941 24.2012 49.4941 23.6973C49.4941 23.1777 49.5684 22.668 49.7168 22.168C49.8691 21.6641 50.0859 21.209 50.3672 20.8027C50.6484 20.3926 50.9863 20.0664 51.3809 19.8242C51.7793 19.582 52.2246 19.4609 52.7168 19.4609C53.3066 19.4609 53.7539 19.5938 54.0586 19.8594C54.3633 20.1211 54.5156 20.4824 54.5156 20.9434C54.5156 21.2676 54.4395 21.5664 54.2871 21.8398C54.1387 22.1133 53.9082 22.3516 53.5957 22.5547C53.2871 22.7539 52.8945 22.9102 52.418 23.0234C51.9453 23.1328 51.3848 23.1875 50.7363 23.1875H50.5137C50.5059 23.2578 50.498 23.3359 50.4902 23.4219C50.4863 23.5078 50.4844 23.5879 50.4844 23.6621C50.4844 24.1777 50.6094 24.582 50.8594 24.875C51.1094 25.1641 51.4844 25.3086 51.9844 25.3086C52.293 25.3086 52.584 25.2656 52.8574 25.1797C53.1348 25.0898 53.4238 24.9727 53.7246 24.8281V25.666C53.4355 25.7988 53.1445 25.9082 52.8516 25.9941C52.5586 26.0762 52.2129 26.1172 51.8145 26.1172ZM50.6543 22.3906H50.7949C51.2949 22.3906 51.7539 22.3477 52.1719 22.2617C52.5898 22.1719 52.9258 22.0273 53.1797 21.8281C53.4336 21.625 53.5605 21.3555 53.5605 21.0195C53.5605 20.8008 53.4863 20.6211 53.3379 20.4805C53.1895 20.3398 52.9629 20.2695 52.6582 20.2695C52.3887 20.2695 52.123 20.3535 51.8613 20.5215C51.5996 20.6855 51.3613 20.9258 51.1465 21.2422C50.9355 21.5586 50.7715 21.9414 50.6543 22.3906ZM55.2188 26L56.584 19.5781H57.5508L56.9941 22.2734H60.123L60.6973 19.5781H61.6699L60.3223 26H59.3379L59.9414 23.0879H56.8125L56.1973 26H55.2188ZM64.3066 26.1172C63.9824 26.1172 63.6992 26.0566 63.457 25.9355C63.2148 25.8145 63.0273 25.6367 62.8945 25.4023C62.7656 25.1641 62.7012 24.873 62.7012 24.5293C62.7012 24.3574 62.7129 24.1914 62.7363 24.0312C62.7637 23.8672 62.793 23.6973 62.8242 23.5215L63.6738 19.5781H64.6582L63.7852 23.6328C63.7539 23.8008 63.7285 23.9512 63.709 24.084C63.6934 24.2129 63.6855 24.3281 63.6855 24.4297C63.6855 24.707 63.7559 24.9238 63.8965 25.0801C64.041 25.2324 64.2695 25.3086 64.582 25.3086C64.875 25.3086 65.1816 25.209 65.502 25.0098C65.8262 24.8105 66.125 24.498 66.3984 24.0723C66.6758 23.6426 66.8867 23.0859 67.0312 22.4023L67.6289 19.5781H68.5898L67.2305 26H66.4277L66.5859 24.7578H66.5332C66.3848 24.9609 66.2051 25.168 65.9941 25.3789C65.7832 25.5859 65.5391 25.7617 65.2617 25.9062C64.9844 26.0469 64.666 26.1172 64.3066 26.1172ZM71.8652 26.1172C71.3848 26.1172 70.9707 26.0215 70.623 25.8301C70.2754 25.6348 70.0078 25.3574 69.8203 24.998C69.6367 24.6348 69.5449 24.2012 69.5449 23.6973C69.5449 23.1777 69.6191 22.668 69.7676 22.168C69.9199 21.6641 70.1367 21.209 70.418 20.8027C70.6992 20.3926 71.0371 20.0664 71.4316 19.8242C71.8301 19.582 72.2754 19.4609 72.7676 19.4609C73.3574 19.4609 73.8047 19.5938 74.1094 19.8594C74.4141 20.1211 74.5664 20.4824 74.5664 20.9434C74.5664 21.2676 74.4902 21.5664 74.3379 21.8398C74.1895 22.1133 73.959 22.3516 73.6465 22.5547C73.3379 22.7539 72.9453 22.9102 72.4688 23.0234C71.9961 23.1328 71.4355 23.1875 70.7871 23.1875H70.5645C70.5566 23.2578 70.5488 23.3359 70.541 23.4219C70.5371 23.5078 70.5352 23.5879 70.5352 23.6621C70.5352 24.1777 70.6602 24.582 70.9102 24.875C71.1602 25.1641 71.5352 25.3086 72.0352 25.3086C72.3438 25.3086 72.6348 25.2656 72.9082 25.1797C73.1855 25.0898 73.4746 24.9727 73.7754 24.8281V25.666C73.4863 25.7988 73.1953 25.9082 72.9023 25.9941C72.6094 26.0762 72.2637 26.1172 71.8652 26.1172ZM70.7051 22.3906H70.8457C71.3457 22.3906 71.8047 22.3477 72.2227 22.2617C72.6406 22.1719 72.9766 22.0273 73.2305 21.8281C73.4844 21.625 73.6113 21.3555 73.6113 21.0195C73.6113 20.8008 73.5371 20.6211 73.3887 20.4805C73.2402 20.3398 73.0137 20.2695 72.709 20.2695C72.4395 20.2695 72.1738 20.3535 71.9121 20.5215C71.6504 20.6855 71.4121 20.9258 71.1973 21.2422C70.9863 21.5586 70.8223 21.9414 70.7051 22.3906ZM78.3867 26L79.752 19.5781H80.5488L80.3965 20.8203H80.4551C80.5957 20.6172 80.7656 20.4121 80.9648 20.2051C81.1641 19.9941 81.3945 19.8184 81.6562 19.6777C81.9219 19.5332 82.2227 19.4609 82.5586 19.4609C83.0117 19.4609 83.3555 19.5918 83.5898 19.8535C83.8242 20.1152 83.9609 20.4727 84 20.9258H84.041C84.1973 20.6875 84.3848 20.457 84.6035 20.2344C84.8223 20.0078 85.0703 19.8223 85.3477 19.6777C85.6289 19.5332 85.9375 19.4609 86.2734 19.4609C86.7695 19.4609 87.1523 19.5957 87.4219 19.8652C87.6914 20.1348 87.8262 20.5254 87.8262 21.0371C87.8262 21.2207 87.8145 21.3945 87.791 21.5586C87.7715 21.7227 87.7402 21.8906 87.6973 22.0625L86.8652 26H85.8809L86.748 21.957C86.7832 21.7812 86.8086 21.6289 86.8242 21.5C86.8438 21.3711 86.8535 21.248 86.8535 21.1309C86.8535 20.8691 86.7832 20.6621 86.6426 20.5098C86.502 20.3574 86.2852 20.2812 85.9922 20.2812C85.7852 20.2812 85.5703 20.3379 85.3477 20.4512C85.125 20.5645 84.9082 20.7363 84.6973 20.9668C84.4902 21.1934 84.3027 21.4805 84.1348 21.8281C83.9668 22.1758 83.832 22.584 83.7305 23.0527L83.1035 26H82.1309L82.9863 21.9746C83.0215 21.7949 83.0469 21.6406 83.0625 21.5117C83.082 21.3789 83.0918 21.2656 83.0918 21.1719C83.0918 20.8945 83.0273 20.6777 82.8984 20.5215C82.7695 20.3613 82.5586 20.2812 82.2656 20.2812C82.0586 20.2812 81.8418 20.3359 81.6152 20.4453C81.3926 20.5547 81.1758 20.7266 80.9648 20.9609C80.7539 21.1953 80.5605 21.4941 80.3848 21.8574C80.209 22.2207 80.0684 22.6582 79.9629 23.1699L79.3652 26H78.3867ZM91.4707 26.0938C90.9785 26.0938 90.5547 25.9941 90.1992 25.7949C89.8438 25.5918 89.5703 25.3066 89.3789 24.9395C89.1914 24.5684 89.0977 24.1309 89.0977 23.627C89.0977 23.2207 89.1426 22.8203 89.2324 22.4258C89.3223 22.0273 89.4551 21.6523 89.6309 21.3008C89.8066 20.9453 90.0234 20.6328 90.2812 20.3633C90.543 20.0898 90.8438 19.877 91.1836 19.7246C91.5234 19.5684 91.9023 19.4902 92.3203 19.4902C92.8203 19.4902 93.2461 19.5918 93.5977 19.7949C93.9531 19.9941 94.2246 20.2793 94.4121 20.6504C94.6035 21.0215 94.6992 21.4609 94.6992 21.9688C94.6992 22.3672 94.6543 22.7637 94.5645 23.1582C94.4785 23.5527 94.3477 23.9277 94.1719 24.2832C94 24.6348 93.7832 24.9473 93.5215 25.2207C93.2637 25.4902 92.9629 25.7031 92.6191 25.8594C92.2793 26.0156 91.8965 26.0938 91.4707 26.0938ZM91.5293 25.2852C91.7715 25.2852 92.002 25.2344 92.2207 25.1328C92.4395 25.0312 92.6387 24.8848 92.8184 24.6934C92.998 24.498 93.1523 24.2617 93.2812 23.9844C93.4141 23.7031 93.5156 23.3848 93.5859 23.0293C93.6602 22.6738 93.6973 22.2832 93.6973 21.8574C93.6973 21.6035 93.6523 21.3574 93.5625 21.1191C93.4727 20.8809 93.3281 20.6855 93.1289 20.5332C92.9297 20.377 92.6641 20.2988 92.332 20.2988C92.0586 20.2988 91.8047 20.3555 91.5703 20.4688C91.3398 20.582 91.1328 20.7422 90.9492 20.9492C90.7656 21.1562 90.6094 21.4004 90.4805 21.6816C90.3555 21.9629 90.2578 22.2715 90.1875 22.6074C90.1211 22.9434 90.0879 23.2969 90.0879 23.668C90.0879 24.1797 90.2129 24.5781 90.4629 24.8633C90.7129 25.1445 91.0684 25.2852 91.5293 25.2852ZM95.2207 26.0762C95.123 26.0762 95.0312 26.0664 94.9453 26.0469C94.8594 26.0312 94.793 26.0156 94.7461 26V25.1562C94.8008 25.1797 94.8613 25.1973 94.9277 25.209C94.9902 25.2207 95.0586 25.2266 95.1328 25.2266C95.3281 25.2266 95.502 25.1797 95.6543 25.0859C95.8066 24.9922 95.9473 24.8438 96.0762 24.6406C96.209 24.4375 96.3398 24.1719 96.4688 23.8438C96.6016 23.5156 96.7461 23.1172 96.9023 22.6484C97.0859 22.1133 97.2617 21.6484 97.4297 21.2539C97.6016 20.8594 97.793 20.5352 98.0039 20.2812C98.2188 20.0234 98.4785 19.832 98.7832 19.707C99.0918 19.582 99.4746 19.5195 99.9316 19.5195C100.193 19.5195 100.445 19.5371 100.688 19.5723C100.93 19.6074 101.152 19.6523 101.355 19.707L100.008 26H99.0234L100.242 20.3926C100.188 20.3809 100.119 20.3711 100.037 20.3633C99.959 20.3516 99.873 20.3457 99.7793 20.3457C99.4395 20.3457 99.1621 20.4238 98.9473 20.5801C98.7363 20.7324 98.543 21 98.3672 21.3828C98.1953 21.7617 97.9922 22.293 97.7578 22.9766C97.582 23.4883 97.4121 23.9375 97.248 24.3242C97.0879 24.7109 96.916 25.0352 96.7324 25.2969C96.5527 25.5547 96.3398 25.75 96.0938 25.8828C95.8516 26.0117 95.5605 26.0762 95.2207 26.0762ZM104.613 26.1172C104.16 26.1172 103.773 26.0488 103.453 25.9121C103.137 25.7715 102.896 25.5645 102.732 25.291C102.568 25.0137 102.486 24.6699 102.486 24.2598C102.486 24.084 102.5 23.8926 102.527 23.6855C102.559 23.4746 102.594 23.2773 102.633 23.0938L103.377 19.5781H104.361L103.74 22.3965C103.951 22.3574 104.18 22.3223 104.426 22.291C104.672 22.2598 104.926 22.2441 105.188 22.2441C105.672 22.2441 106.062 22.3164 106.359 22.4609C106.656 22.6055 106.873 22.8047 107.01 23.0586C107.15 23.3125 107.221 23.6074 107.221 23.9434C107.221 24.3301 107.125 24.6895 106.934 25.0215C106.742 25.3496 106.453 25.6152 106.066 25.8184C105.68 26.0176 105.195 26.1172 104.613 26.1172ZM104.701 25.3203C104.971 25.3203 105.203 25.2871 105.398 25.2207C105.594 25.1504 105.754 25.0547 105.879 24.9336C106.008 24.8125 106.102 24.6738 106.16 24.5176C106.223 24.3574 106.254 24.1895 106.254 24.0137C106.254 23.8184 106.213 23.6484 106.131 23.5039C106.049 23.3594 105.912 23.248 105.721 23.1699C105.533 23.0879 105.279 23.0469 104.959 23.0469C104.705 23.0469 104.461 23.0605 104.227 23.0879C103.996 23.1113 103.783 23.1426 103.588 23.1816C103.537 23.4082 103.502 23.6016 103.482 23.7617C103.463 23.918 103.453 24.0586 103.453 24.1836C103.453 24.5156 103.543 24.7891 103.723 25.0039C103.902 25.2148 104.229 25.3203 104.701 25.3203ZM108.316 26L109.676 19.5781H110.637L109.975 22.6719L113.051 19.5781H114.281L111.035 22.748L113.227 26H112.061L109.963 22.7949L109.295 26H108.316ZM116.689 26.0938C116.197 26.0938 115.773 25.9941 115.418 25.7949C115.062 25.5918 114.789 25.3066 114.598 24.9395C114.41 24.5684 114.316 24.1309 114.316 23.627C114.316 23.2207 114.361 22.8203 114.451 22.4258C114.541 22.0273 114.674 21.6523 114.85 21.3008C115.025 20.9453 115.242 20.6328 115.5 20.3633C115.762 20.0898 116.062 19.877 116.402 19.7246C116.742 19.5684 117.121 19.4902 117.539 19.4902C118.039 19.4902 118.465 19.5918 118.816 19.7949C119.172 19.9941 119.443 20.2793 119.631 20.6504C119.822 21.0215 119.918 21.4609 119.918 21.9688C119.918 22.3672 119.873 22.7637 119.783 23.1582C119.697 23.5527 119.566 23.9277 119.391 24.2832C119.219 24.6348 119.002 24.9473 118.74 25.2207C118.482 25.4902 118.182 25.7031 117.838 25.8594C117.498 26.0156 117.115 26.0938 116.689 26.0938ZM116.748 25.2852C116.99 25.2852 117.221 25.2344 117.439 25.1328C117.658 25.0312 117.857 24.8848 118.037 24.6934C118.217 24.498 118.371 24.2617 118.5 23.9844C118.633 23.7031 118.734 23.3848 118.805 23.0293C118.879 22.6738 118.916 22.2832 118.916 21.8574C118.916 21.6035 118.871 21.3574 118.781 21.1191C118.691 20.8809 118.547 20.6855 118.348 20.5332C118.148 20.377 117.883 20.2988 117.551 20.2988C117.277 20.2988 117.023 20.3555 116.789 20.4688C116.559 20.582 116.352 20.7422 116.168 20.9492C115.984 21.1562 115.828 21.4004 115.699 21.6816C115.574 21.9629 115.477 22.2715 115.406 22.6074C115.34 22.9434 115.307 23.2969 115.307 23.668C115.307 24.1797 115.432 24.5781 115.682 24.8633C115.932 25.1445 116.287 25.2852 116.748 25.2852ZM126.299 26.1172C125.838 26.1172 125.451 26.0195 125.139 25.8242C124.826 25.6289 124.59 25.3555 124.43 25.0039C124.273 24.6523 124.195 24.2441 124.195 23.7793C124.195 23.4043 124.236 23.0293 124.318 22.6543C124.4 22.2754 124.523 21.918 124.688 21.582C124.852 21.2461 125.053 20.9473 125.291 20.6855C125.533 20.4238 125.811 20.2188 126.123 20.0703C126.439 19.918 126.793 19.8418 127.184 19.8418C127.508 19.8418 127.779 19.8926 127.998 19.9941C128.217 20.0918 128.398 20.2227 128.543 20.3867C128.688 20.5508 128.803 20.7266 128.889 20.9141H128.924C128.932 20.8477 128.936 20.7793 128.936 20.709C128.936 20.6348 128.936 20.5684 128.936 20.5098C128.936 19.5176 128.803 18.7812 128.537 18.3008C128.271 17.8164 127.861 17.5742 127.307 17.5742C127.1 17.5742 126.883 17.5996 126.656 17.6504C126.43 17.6973 126.227 17.7617 126.047 17.8438L125.801 17.1113C125.996 17.0176 126.244 16.9355 126.545 16.8652C126.846 16.7949 127.139 16.7598 127.424 16.7598C128.002 16.7598 128.475 16.9004 128.842 17.1816C129.209 17.4629 129.48 17.8789 129.656 18.4297C129.832 18.9766 129.92 19.6484 129.92 20.4453C129.92 20.8477 129.889 21.2656 129.826 21.6992C129.768 22.1328 129.676 22.5625 129.551 22.9883C129.426 23.4102 129.266 23.8105 129.07 24.1895C128.875 24.5645 128.643 24.8965 128.373 25.1855C128.107 25.4746 127.801 25.7031 127.453 25.8711C127.109 26.0352 126.725 26.1172 126.299 26.1172ZM126.398 25.2969C126.645 25.2969 126.873 25.2402 127.084 25.127C127.295 25.0098 127.488 24.8477 127.664 24.6406C127.84 24.4336 127.998 24.1934 128.139 23.9199C128.279 23.6426 128.4 23.3418 128.502 23.0176C128.604 22.6934 128.686 22.3574 128.748 22.0098C128.674 21.748 128.568 21.5117 128.432 21.3008C128.299 21.0898 128.137 20.9219 127.945 20.7969C127.754 20.668 127.529 20.6035 127.271 20.6035C127.045 20.6035 126.828 20.6562 126.621 20.7617C126.414 20.8672 126.223 21.0156 126.047 21.207C125.875 21.3984 125.725 21.625 125.596 21.8867C125.467 22.1484 125.365 22.4375 125.291 22.7539C125.221 23.0703 125.186 23.4062 125.186 23.7617C125.186 24.1992 125.281 24.5645 125.473 24.8574C125.664 25.1504 125.973 25.2969 126.398 25.2969ZM130.318 26.0762C130.221 26.0762 130.129 26.0664 130.043 26.0469C129.957 26.0312 129.891 26.0156 129.844 26V25.1562C129.898 25.1797 129.959 25.1973 130.025 25.209C130.088 25.2207 130.156 25.2266 130.23 25.2266C130.426 25.2266 130.6 25.1797 130.752 25.0859C130.904 24.9922 131.045 24.8438 131.174 24.6406C131.307 24.4375 131.438 24.1719 131.566 23.8438C131.699 23.5156 131.844 23.1172 132 22.6484C132.184 22.1133 132.359 21.6484 132.527 21.2539C132.699 20.8594 132.891 20.5352 133.102 20.2812C133.316 20.0234 133.576 19.832 133.881 19.707C134.189 19.582 134.572 19.5195 135.029 19.5195C135.291 19.5195 135.543 19.5371 135.785 19.5723C136.027 19.6074 136.25 19.6523 136.453 19.707L135.105 26H134.121L135.34 20.3926C135.285 20.3809 135.217 20.3711 135.135 20.3633C135.057 20.3516 134.971 20.3457 134.877 20.3457C134.537 20.3457 134.26 20.4238 134.045 20.5801C133.834 20.7324 133.641 21 133.465 21.3828C133.293 21.7617 133.09 22.293 132.855 22.9766C132.68 23.4883 132.51 23.9375 132.346 24.3242C132.186 24.7109 132.014 25.0352 131.83 25.2969C131.65 25.5547 131.438 25.75 131.191 25.8828C130.949 26.0117 130.658 26.0762 130.318 26.0762ZM137.039 26.0645C136.941 26.0645 136.854 26.0566 136.775 26.041C136.693 26.0293 136.627 26.0156 136.576 26V25.2207C136.619 25.2324 136.666 25.2422 136.717 25.25C136.768 25.2539 136.818 25.2559 136.869 25.2559C137.01 25.2559 137.131 25.2266 137.232 25.168C137.338 25.1055 137.439 25.002 137.537 24.8574C137.635 24.7129 137.744 24.5137 137.865 24.2598C137.951 24.0762 138.045 23.9082 138.146 23.7559C138.248 23.5996 138.367 23.4629 138.504 23.3457C138.645 23.2285 138.811 23.1367 139.002 23.0703C138.732 22.9961 138.514 22.8867 138.346 22.7422C138.178 22.5938 138.053 22.4219 137.971 22.2266C137.893 22.0273 137.854 21.8164 137.854 21.5938C137.854 21.293 137.908 21.0195 138.018 20.7734C138.131 20.5273 138.293 20.3145 138.504 20.1348C138.719 19.9551 138.982 19.8184 139.295 19.7246C139.607 19.627 139.963 19.5781 140.361 19.5781H142.775L141.422 26H140.455L141.012 23.4277H140.215C139.941 23.4277 139.721 23.4707 139.553 23.5566C139.385 23.6387 139.24 23.7656 139.119 23.9375C139.002 24.1055 138.879 24.3203 138.75 24.582C138.602 24.8906 138.455 25.1562 138.311 25.3789C138.166 25.6016 137.996 25.7715 137.801 25.8887C137.605 26.0059 137.352 26.0645 137.039 26.0645ZM140.109 22.5898H141.182L141.645 20.416H140.215C139.93 20.416 139.682 20.4609 139.471 20.5508C139.264 20.6406 139.104 20.7734 138.99 20.9492C138.877 21.125 138.82 21.3398 138.82 21.5938C138.82 21.9648 138.943 22.2246 139.189 22.373C139.436 22.5176 139.742 22.5898 140.109 22.5898ZM146.027 28.8711L147.99 19.5781H148.787L148.629 20.8262H148.67C148.854 20.584 149.055 20.3613 149.273 20.1582C149.496 19.9512 149.738 19.7852 150 19.6602C150.266 19.5352 150.555 19.4727 150.867 19.4727C151.219 19.4727 151.525 19.5566 151.787 19.7246C152.049 19.8887 152.252 20.1348 152.396 20.4629C152.545 20.7871 152.619 21.1914 152.619 21.6758C152.619 22.1367 152.572 22.5859 152.479 23.0234C152.389 23.457 152.256 23.8613 152.08 24.2363C151.904 24.6074 151.688 24.9355 151.43 25.2207C151.176 25.502 150.885 25.7227 150.557 25.8828C150.229 26.0391 149.867 26.1172 149.473 26.1172C149.172 26.1172 148.912 26.0645 148.693 25.959C148.479 25.8496 148.297 25.707 148.148 25.5312C148.004 25.3555 147.889 25.166 147.803 24.9629H147.75C147.734 25.1074 147.709 25.2969 147.674 25.5312C147.643 25.7617 147.609 25.9551 147.574 26.1113L146.988 28.8711H146.027ZM149.402 25.3086C149.676 25.3086 149.926 25.2402 150.152 25.1035C150.383 24.9668 150.588 24.7812 150.768 24.5469C150.951 24.3086 151.105 24.0332 151.23 23.7207C151.359 23.4082 151.457 23.0762 151.523 22.7246C151.59 22.373 151.623 22.0156 151.623 21.6523C151.623 21.1992 151.531 20.8574 151.348 20.627C151.168 20.3965 150.898 20.2812 150.539 20.2812C150.352 20.2812 150.162 20.3281 149.971 20.4219C149.779 20.5117 149.594 20.6406 149.414 20.8086C149.234 20.9727 149.066 21.168 148.91 21.3945C148.754 21.6211 148.617 21.8711 148.5 22.1445C148.387 22.418 148.297 22.707 148.23 23.0117C148.164 23.3164 148.131 23.6289 148.131 23.9492C148.131 24.3594 148.234 24.6895 148.441 24.9395C148.652 25.1855 148.973 25.3086 149.402 25.3086ZM152.883 28.8887C152.691 28.8887 152.537 28.877 152.42 28.8535C152.299 28.8301 152.182 28.8008 152.068 28.7656V27.9746C152.174 28.002 152.291 28.0254 152.42 28.0449C152.549 28.0684 152.686 28.0801 152.83 28.0801C153.15 28.0801 153.426 27.9785 153.656 27.7754C153.887 27.5723 154.111 27.2734 154.33 26.8789L154.781 26.0762L153.797 19.5781H154.781L155.227 22.877C155.266 23.1348 155.297 23.4121 155.32 23.709C155.344 24.002 155.361 24.2812 155.373 24.5469C155.385 24.8086 155.391 25.0215 155.391 25.1855H155.426C155.48 25.0566 155.562 24.8711 155.672 24.6289C155.781 24.3828 155.898 24.127 156.023 23.8613C156.148 23.5957 156.26 23.373 156.357 23.1934L158.285 19.5781H159.328L155.215 27.1133C155.004 27.5039 154.787 27.8301 154.564 28.0918C154.346 28.3574 154.102 28.5566 153.832 28.6895C153.562 28.8223 153.246 28.8887 152.883 28.8887ZM161.719 26.1172C161.242 26.1172 160.824 26.0273 160.465 25.8477C160.109 25.6641 159.832 25.3945 159.633 25.0391C159.438 24.6836 159.34 24.2422 159.34 23.7148C159.34 23.2578 159.389 22.8184 159.486 22.3965C159.588 21.9746 159.734 21.5859 159.926 21.2305C160.117 20.875 160.35 20.5645 160.623 20.2988C160.896 20.0332 161.207 19.8281 161.555 19.6836C161.906 19.5352 162.289 19.4609 162.703 19.4609C162.98 19.4609 163.256 19.4883 163.529 19.543C163.807 19.5938 164.057 19.668 164.279 19.7656L164.004 20.5859C163.84 20.5078 163.646 20.4375 163.424 20.375C163.201 20.3125 162.963 20.2812 162.709 20.2812C162.354 20.2812 162.029 20.3711 161.736 20.5508C161.447 20.7305 161.197 20.9805 160.986 21.3008C160.779 21.6172 160.619 21.9805 160.506 22.3906C160.393 22.8008 160.336 23.2383 160.336 23.7031C160.336 24.0352 160.395 24.3223 160.512 24.5645C160.629 24.8027 160.797 24.9863 161.016 25.1152C161.238 25.2441 161.504 25.3086 161.812 25.3086C162.098 25.3086 162.365 25.2695 162.615 25.1914C162.869 25.1133 163.117 25.0195 163.359 24.9102V25.7422C163.145 25.8516 162.898 25.9414 162.621 26.0117C162.348 26.082 162.047 26.1172 161.719 26.1172ZM167.156 26.1172C166.68 26.1172 166.262 26.0273 165.902 25.8477C165.547 25.6641 165.27 25.3945 165.07 25.0391C164.875 24.6836 164.777 24.2422 164.777 23.7148C164.777 23.2578 164.826 22.8184 164.924 22.3965C165.025 21.9746 165.172 21.5859 165.363 21.2305C165.555 20.875 165.787 20.5645 166.061 20.2988C166.334 20.0332 166.645 19.8281 166.992 19.6836C167.344 19.5352 167.727 19.4609 168.141 19.4609C168.418 19.4609 168.693 19.4883 168.967 19.543C169.244 19.5938 169.494 19.668 169.717 19.7656L169.441 20.5859C169.277 20.5078 169.084 20.4375 168.861 20.375C168.639 20.3125 168.4 20.2812 168.146 20.2812C167.791 20.2812 167.467 20.3711 167.174 20.5508C166.885 20.7305 166.635 20.9805 166.424 21.3008C166.217 21.6172 166.057 21.9805 165.943 22.3906C165.83 22.8008 165.773 23.2383 165.773 23.7031C165.773 24.0352 165.832 24.3223 165.949 24.5645C166.066 24.8027 166.234 24.9863 166.453 25.1152C166.676 25.2441 166.941 25.3086 167.25 25.3086C167.535 25.3086 167.803 25.2695 168.053 25.1914C168.307 25.1133 168.555 25.0195 168.797 24.9102V25.7422C168.582 25.8516 168.336 25.9414 168.059 26.0117C167.785 26.082 167.484 26.1172 167.156 26.1172ZM169.969 26L171.328 19.5781H172.289L171.627 22.6719L174.703 19.5781H175.934L172.688 22.748L174.879 26H173.713L171.615 22.7949L170.947 26H169.969ZM178.342 26.0938C177.85 26.0938 177.426 25.9941 177.07 25.7949C176.715 25.5918 176.441 25.3066 176.25 24.9395C176.062 24.5684 175.969 24.1309 175.969 23.627C175.969 23.2207 176.014 22.8203 176.104 22.4258C176.193 22.0273 176.326 21.6523 176.502 21.3008C176.678 20.9453 176.895 20.6328 177.152 20.3633C177.414 20.0898 177.715 19.877 178.055 19.7246C178.395 19.5684 178.773 19.4902 179.191 19.4902C179.691 19.4902 180.117 19.5918 180.469 19.7949C180.824 19.9941 181.096 20.2793 181.283 20.6504C181.475 21.0215 181.57 21.4609 181.57 21.9688C181.57 22.3672 181.525 22.7637 181.436 23.1582C181.35 23.5527 181.219 23.9277 181.043 24.2832C180.871 24.6348 180.654 24.9473 180.393 25.2207C180.135 25.4902 179.834 25.7031 179.49 25.8594C179.15 26.0156 178.768 26.0938 178.342 26.0938ZM178.4 25.2852C178.643 25.2852 178.873 25.2344 179.092 25.1328C179.311 25.0312 179.51 24.8848 179.689 24.6934C179.869 24.498 180.023 24.2617 180.152 23.9844C180.285 23.7031 180.387 23.3848 180.457 23.0293C180.531 22.6738 180.568 22.2832 180.568 21.8574C180.568 21.6035 180.523 21.3574 180.434 21.1191C180.344 20.8809 180.199 20.6855 180 20.5332C179.801 20.377 179.535 20.2988 179.203 20.2988C178.93 20.2988 178.676 20.3555 178.441 20.4688C178.211 20.582 178.004 20.7422 177.82 20.9492C177.637 21.1562 177.48 21.4004 177.352 21.6816C177.227 21.9629 177.129 22.2715 177.059 22.6074C176.992 22.9434 176.959 23.2969 176.959 23.668C176.959 24.1797 177.084 24.5781 177.334 24.8633C177.584 25.1445 177.939 25.2852 178.4 25.2852ZM184.465 26.1172C184.094 26.1172 183.754 26.0625 183.445 25.9531C183.141 25.8438 182.896 25.6719 182.713 25.4375C182.529 25.1992 182.438 24.8926 182.438 24.5176C182.438 24.209 182.498 23.9414 182.619 23.7148C182.74 23.4883 182.902 23.293 183.105 23.1289C183.312 22.9609 183.545 22.8164 183.803 22.6953C184.061 22.5703 184.324 22.459 184.594 22.3613C184.93 22.2324 185.223 22.1055 185.473 21.9805C185.723 21.8555 185.916 21.7168 186.053 21.5645C186.189 21.4082 186.258 21.2188 186.258 20.9961C186.258 20.7852 186.191 20.6133 186.059 20.4805C185.926 20.3477 185.689 20.2812 185.35 20.2812C185.033 20.2812 184.723 20.3262 184.418 20.416C184.117 20.502 183.842 20.6016 183.592 20.7148L183.322 19.9355C183.592 19.834 183.902 19.7324 184.254 19.6309C184.609 19.5254 185.008 19.4727 185.449 19.4727C185.805 19.4727 186.117 19.5234 186.387 19.625C186.656 19.7266 186.867 19.8848 187.02 20.0996C187.172 20.3145 187.248 20.5938 187.248 20.9375C187.248 21.2109 187.193 21.4512 187.084 21.6582C186.975 21.8652 186.824 22.0488 186.633 22.209C186.445 22.3652 186.23 22.5039 185.988 22.625C185.75 22.7422 185.498 22.8496 185.232 22.9473C184.854 23.0918 184.529 23.2285 184.26 23.3574C183.99 23.4824 183.783 23.6289 183.639 23.7969C183.494 23.9648 183.422 24.1797 183.422 24.4414C183.422 24.707 183.518 24.918 183.709 25.0742C183.904 25.2305 184.203 25.3086 184.605 25.3086C184.828 25.3086 185.043 25.2871 185.25 25.2441C185.461 25.1973 185.666 25.1367 185.865 25.0625C186.068 24.9844 186.264 24.9004 186.451 24.8105V25.6719C186.178 25.7969 185.881 25.9023 185.561 25.9883C185.24 26.0742 184.875 26.1172 184.465 26.1172ZM190.564 26.0938C190.072 26.0938 189.648 25.9941 189.293 25.7949C188.938 25.5918 188.664 25.3066 188.473 24.9395C188.285 24.5684 188.191 24.1309 188.191 23.627C188.191 23.2207 188.236 22.8203 188.326 22.4258C188.416 22.0273 188.549 21.6523 188.725 21.3008C188.9 20.9453 189.117 20.6328 189.375 20.3633C189.637 20.0898 189.938 19.877 190.277 19.7246C190.617 19.5684 190.996 19.4902 191.414 19.4902C191.914 19.4902 192.34 19.5918 192.691 19.7949C193.047 19.9941 193.318 20.2793 193.506 20.6504C193.697 21.0215 193.793 21.4609 193.793 21.9688C193.793 22.3672 193.748 22.7637 193.658 23.1582C193.572 23.5527 193.441 23.9277 193.266 24.2832C193.094 24.6348 192.877 24.9473 192.615 25.2207C192.357 25.4902 192.057 25.7031 191.713 25.8594C191.373 26.0156 190.99 26.0938 190.564 26.0938ZM190.623 25.2852C190.865 25.2852 191.096 25.2344 191.314 25.1328C191.533 25.0312 191.732 24.8848 191.912 24.6934C192.092 24.498 192.246 24.2617 192.375 23.9844C192.508 23.7031 192.609 23.3848 192.68 23.0293C192.754 22.6738 192.791 22.2832 192.791 21.8574C192.791 21.6035 192.746 21.3574 192.656 21.1191C192.566 20.8809 192.422 20.6855 192.223 20.5332C192.023 20.377 191.758 20.2988 191.426 20.2988C191.152 20.2988 190.898 20.3555 190.664 20.4688C190.434 20.582 190.227 20.7422 190.043 20.9492C189.859 21.1562 189.703 21.4004 189.574 21.6816C189.449 21.9629 189.352 22.2715 189.281 22.6074C189.215 22.9434 189.182 23.2969 189.182 23.668C189.182 24.1797 189.307 24.5781 189.557 24.8633C189.807 25.1445 190.162 25.2852 190.623 25.2852ZM197.684 26.0645C197.586 26.0645 197.498 26.0566 197.42 26.041C197.338 26.0293 197.271 26.0156 197.221 26V25.2207C197.264 25.2324 197.311 25.2422 197.361 25.25C197.412 25.2539 197.463 25.2559 197.514 25.2559C197.654 25.2559 197.775 25.2266 197.877 25.168C197.982 25.1055 198.084 25.002 198.182 24.8574C198.279 24.7129 198.389 24.5137 198.51 24.2598C198.596 24.0762 198.689 23.9082 198.791 23.7559C198.893 23.5996 199.012 23.4629 199.148 23.3457C199.289 23.2285 199.455 23.1367 199.646 23.0703C199.377 22.9961 199.158 22.8867 198.99 22.7422C198.822 22.5938 198.697 22.4219 198.615 22.2266C198.537 22.0273 198.498 21.8164 198.498 21.5938C198.498 21.293 198.553 21.0195 198.662 20.7734C198.775 20.5273 198.938 20.3145 199.148 20.1348C199.363 19.9551 199.627 19.8184 199.939 19.7246C200.252 19.627 200.607 19.5781 201.006 19.5781H203.42L202.066 26H201.1L201.656 23.4277H200.859C200.586 23.4277 200.365 23.4707 200.197 23.5566C200.029 23.6387 199.885 23.7656 199.764 23.9375C199.646 24.1055 199.523 24.3203 199.395 24.582C199.246 24.8906 199.1 25.1562 198.955 25.3789C198.811 25.6016 198.641 25.7715 198.445 25.8887C198.25 26.0059 197.996 26.0645 197.684 26.0645ZM200.754 22.5898H201.826L202.289 20.416H200.859C200.574 20.416 200.326 20.4609 200.115 20.5508C199.908 20.6406 199.748 20.7734 199.635 20.9492C199.521 21.125 199.465 21.3398 199.465 21.5938C199.465 21.9648 199.588 22.2246 199.834 22.373C200.08 22.5176 200.387 22.5898 200.754 22.5898ZM205.635 26.1172C205.283 26.1172 204.943 26.0801 204.615 26.0059C204.291 25.9316 204.02 25.834 203.801 25.7129V24.8047C204.008 24.9258 204.273 25.043 204.598 25.1562C204.926 25.2656 205.297 25.3203 205.711 25.3203C206.051 25.3203 206.348 25.2695 206.602 25.168C206.855 25.0625 207.053 24.9141 207.193 24.7227C207.338 24.5312 207.41 24.3066 207.41 24.0488C207.41 23.752 207.322 23.5156 207.146 23.3398C206.971 23.1602 206.641 23.0703 206.156 23.0703H205.301L205.488 22.25H206.08C206.354 22.25 206.621 22.2207 206.883 22.1621C207.145 22.0996 207.361 21.9863 207.533 21.8223C207.705 21.6543 207.791 21.4141 207.791 21.1016C207.791 20.8516 207.705 20.6523 207.533 20.5039C207.361 20.3555 207.105 20.2812 206.766 20.2812C206.48 20.2812 206.209 20.3164 205.951 20.3867C205.697 20.4531 205.414 20.5547 205.102 20.6914L204.814 19.9414C205.139 19.7891 205.461 19.6719 205.781 19.5898C206.105 19.5039 206.475 19.4609 206.889 19.4609C207.283 19.4609 207.619 19.5195 207.896 19.6367C208.178 19.7539 208.393 19.9258 208.541 20.1523C208.689 20.375 208.764 20.6445 208.764 20.9609C208.764 21.25 208.705 21.5078 208.588 21.7344C208.471 21.9609 208.301 22.1504 208.078 22.3027C207.855 22.4512 207.584 22.5605 207.264 22.6309V22.6543C207.607 22.7402 207.873 22.8965 208.061 23.123C208.252 23.3496 208.348 23.6484 208.348 24.0195C208.348 24.4258 208.246 24.7871 208.043 25.1035C207.84 25.4199 207.537 25.668 207.135 25.8477C206.732 26.0273 206.232 26.1172 205.635 26.1172ZM211.916 26.1172C211.482 26.1172 211.111 26.0488 210.803 25.9121C210.498 25.7715 210.264 25.5645 210.1 25.291C209.936 25.0176 209.854 24.6758 209.854 24.2656C209.854 24.0938 209.867 23.9023 209.895 23.6914C209.926 23.4766 209.961 23.2773 210 23.0938L210.738 19.5781H211.723L211.119 22.3965C211.314 22.3574 211.523 22.3223 211.746 22.291C211.973 22.2598 212.205 22.2441 212.443 22.2441C212.881 22.2441 213.244 22.3105 213.533 22.4434C213.822 22.5723 214.039 22.7637 214.184 23.0176C214.332 23.2676 214.406 23.5723 214.406 23.9316C214.406 24.3262 214.316 24.6895 214.137 25.0215C213.957 25.3535 213.684 25.6191 213.316 25.8184C212.949 26.0176 212.482 26.1172 211.916 26.1172ZM211.975 25.3203C212.229 25.3203 212.447 25.2852 212.631 25.2148C212.818 25.1445 212.971 25.0488 213.088 24.9277C213.209 24.8066 213.297 24.668 213.352 24.5117C213.41 24.3555 213.439 24.1895 213.439 24.0137C213.439 23.7793 213.393 23.5918 213.299 23.4512C213.205 23.3105 213.064 23.209 212.877 23.1465C212.689 23.0801 212.453 23.0469 212.168 23.0469C211.957 23.0469 211.748 23.0605 211.541 23.0879C211.338 23.1113 211.143 23.1426 210.955 23.1816C210.904 23.416 210.867 23.6094 210.844 23.7617C210.824 23.9141 210.814 24.0547 210.814 24.1836C210.814 24.5469 210.904 24.8281 211.084 25.0273C211.268 25.2227 211.564 25.3203 211.975 25.3203ZM215.051 26L216.404 19.5781H217.383L216.018 26H215.051ZM218.086 26L219.445 19.5781H220.406L219.744 22.6719L222.82 19.5781H224.051L220.805 22.748L222.996 26H221.83L219.732 22.7949L219.064 26H218.086ZM225.82 26.1172C225.473 26.1172 225.168 26.0332 224.906 25.8652C224.645 25.6973 224.441 25.4492 224.297 25.1211C224.152 24.793 224.08 24.3926 224.08 23.9199C224.08 23.4473 224.129 22.9922 224.227 22.5547C224.328 22.1172 224.471 21.7109 224.654 21.3359C224.838 20.9609 225.059 20.6328 225.316 20.3516C225.578 20.0703 225.871 19.8516 226.195 19.6953C226.52 19.5391 226.869 19.4609 227.244 19.4609C227.533 19.4609 227.783 19.5156 227.994 19.625C228.209 19.7344 228.387 19.8789 228.527 20.0586C228.672 20.2344 228.785 20.4219 228.867 20.6211H228.926L229.301 19.5781H230.045L228.686 26H227.906L228.082 24.7578H228.035C227.859 24.9922 227.658 25.2129 227.432 25.4199C227.205 25.627 226.957 25.7949 226.688 25.9238C226.418 26.0527 226.129 26.1172 225.82 26.1172ZM226.137 25.3086C226.438 25.3086 226.734 25.1992 227.027 24.9805C227.324 24.7578 227.59 24.459 227.824 24.084C228.062 23.7051 228.244 23.2793 228.369 22.8066C228.432 22.5762 228.473 22.3652 228.492 22.1738C228.516 21.9785 228.527 21.7969 228.527 21.6289C228.527 21.2266 228.42 20.9023 228.205 20.6562C227.994 20.4062 227.705 20.2812 227.338 20.2812C227.076 20.2812 226.83 20.3477 226.6 20.4805C226.369 20.6094 226.16 20.791 225.973 21.0254C225.789 21.2559 225.631 21.5254 225.498 21.834C225.365 22.1387 225.262 22.4707 225.188 22.8301C225.117 23.1895 225.082 23.5586 225.082 23.9375C225.082 24.3867 225.174 24.7285 225.357 24.9629C225.541 25.1934 225.801 25.3086 226.137 25.3086ZM229.377 27.8984C229.811 27.4297 230.205 26.9316 230.561 26.4043C230.92 25.877 231.229 25.3223 231.486 24.7402C231.748 24.1543 231.949 23.543 232.09 22.9062C232.23 22.2695 232.301 21.6055 232.301 20.9141C232.301 20.457 232.275 20.0273 232.225 19.625C232.174 19.2188 232.098 18.834 231.996 18.4707C231.895 18.1035 231.77 17.7578 231.621 17.4336H232.389C232.568 17.7578 232.721 18.1055 232.846 18.4766C232.971 18.8438 233.066 19.2305 233.133 19.6367C233.199 20.043 233.232 20.4688 233.232 20.9141C233.232 21.6289 233.166 22.3066 233.033 22.9473C232.904 23.5879 232.713 24.1953 232.459 24.7695C232.205 25.3398 231.895 25.8848 231.527 26.4043C231.164 26.9238 230.748 27.4219 230.279 27.8984H229.377Z" fill="#CF4D4F"/>
</svg>
