<svg width="196" height="29" viewBox="0 0 196 29" fill="none" xmlns="http://www.w3.org/2000/svg">
<path d="M25.1016 2.30078L16.6816 28H8.50781L0.123047 2.30078H7.92773L11.4258 15.3262C11.5547 15.8184 11.7012 16.4512 11.8652 17.2246C12.041 17.9863 12.1992 18.748 12.3398 19.5098C12.4922 20.2715 12.5859 20.8926 12.6211 21.373C12.668 20.8926 12.7559 20.2773 12.8848 19.5273C13.0137 18.7773 13.1543 18.0273 13.3066 17.2773C13.4707 16.5156 13.623 15.8887 13.7637 15.3965L17.332 2.30078H25.1016ZM46.5117 17.998C46.5117 19.6621 46.2832 21.1387 45.8262 22.4277C45.3691 23.7168 44.707 24.8008 43.8398 25.6797C42.9727 26.5586 41.9238 27.2266 40.6934 27.6836C39.4629 28.1289 38.0742 28.3516 36.5273 28.3516C35.0859 28.3516 33.7617 28.1289 32.5547 27.6836C31.3594 27.2266 30.3164 26.5586 29.4258 25.6797C28.5352 24.8008 27.8438 23.7168 27.3516 22.4277C26.8711 21.1387 26.6309 19.6621 26.6309 17.998C26.6309 15.7949 27.0293 13.9316 27.8262 12.4082C28.6348 10.8848 29.7832 9.72461 31.2715 8.92773C32.7715 8.13086 34.5586 7.73242 36.6328 7.73242C38.543 7.73242 40.2422 8.13086 41.7305 8.92773C43.2188 9.72461 44.3848 10.8848 45.2285 12.4082C46.084 13.9316 46.5117 15.7949 46.5117 17.998ZM33.6094 17.998C33.6094 19.1348 33.709 20.0957 33.9082 20.8809C34.1074 21.6543 34.4238 22.2461 34.8574 22.6562C35.3027 23.0547 35.8828 23.2539 36.5977 23.2539C37.3125 23.2539 37.8809 23.0547 38.3027 22.6562C38.7246 22.2461 39.0293 21.6543 39.2168 20.8809C39.416 20.0957 39.5156 19.1348 39.5156 17.998C39.5156 16.8613 39.416 15.9121 39.2168 15.1504C39.0293 14.3887 38.7188 13.8145 38.2852 13.4277C37.8633 13.041 37.2891 12.8477 36.5625 12.8477C35.5195 12.8477 34.7637 13.2812 34.2949 14.1484C33.8379 15.0156 33.6094 16.2988 33.6094 17.998ZM57.3574 8.08398V28H50.4844V8.08398H57.3574ZM53.9473 0.0683594C54.9316 0.0683594 55.7871 0.273438 56.5137 0.683594C57.252 1.09375 57.6211 1.9082 57.6211 3.12695C57.6211 4.31055 57.252 5.11328 56.5137 5.53516C55.7871 5.94531 54.9316 6.15039 53.9473 6.15039C52.9395 6.15039 52.0781 5.94531 51.3633 5.53516C50.6602 5.11328 50.3086 4.31055 50.3086 3.12695C50.3086 1.9082 50.6602 1.09375 51.3633 0.683594C52.0781 0.273438 52.9395 0.0683594 53.9473 0.0683594ZM71.2266 28.3516C69.2109 28.3516 67.459 27.9941 65.9707 27.2793C64.4824 26.5527 63.3281 25.4395 62.5078 23.9395C61.6992 22.4277 61.2949 20.4941 61.2949 18.1387C61.2949 15.7246 61.7461 13.75 62.6484 12.2148C63.5625 10.6797 64.8105 9.54883 66.3926 8.82227C67.9746 8.0957 69.7676 7.73242 71.7715 7.73242C72.9902 7.73242 74.1445 7.86719 75.2344 8.13672C76.3359 8.40625 77.3555 8.77539 78.293 9.24414L76.2715 14.3242C75.4512 13.9609 74.6836 13.6738 73.9688 13.4629C73.2656 13.2402 72.5332 13.1289 71.7715 13.1289C71.0801 13.1289 70.4707 13.3105 69.9434 13.6738C69.416 14.0371 69.0059 14.5879 68.7129 15.3262C68.4199 16.0527 68.2734 16.9785 68.2734 18.1035C68.2734 19.252 68.4199 20.1777 68.7129 20.8809C69.0176 21.584 69.4336 22.0938 69.9609 22.4102C70.5 22.7266 71.1152 22.8848 71.8066 22.8848C72.8027 22.8848 73.793 22.7324 74.7773 22.4277C75.7734 22.1113 76.7168 21.6777 77.6074 21.127V26.5938C76.7871 27.1328 75.8613 27.5605 74.8301 27.877C73.7988 28.1934 72.5977 28.3516 71.2266 28.3516ZM90.5273 7.73242C92.4609 7.73242 94.1309 8.07227 95.5371 8.75195C96.9434 9.41992 98.0273 10.4277 98.7891 11.7754C99.5508 13.123 99.9316 14.8105 99.9316 16.8379V19.8965H87.6445C87.7031 20.9395 88.0898 21.7949 88.8047 22.4629C89.5312 23.1309 90.5977 23.4648 92.0039 23.4648C93.2461 23.4648 94.3828 23.3418 95.4141 23.0957C96.457 22.8496 97.5293 22.4688 98.6309 21.9531V26.8926C97.6699 27.3965 96.6211 27.7656 95.4844 28C94.3477 28.2344 92.9121 28.3516 91.1777 28.3516C89.1738 28.3516 87.3809 27.9941 85.7988 27.2793C84.2168 26.5645 82.9688 25.457 82.0547 23.957C81.1523 22.457 80.7012 20.5293 80.7012 18.1738C80.7012 15.7832 81.1113 13.8203 81.9316 12.2852C82.752 10.7383 83.9004 9.5957 85.377 8.85742C86.8535 8.10742 88.5703 7.73242 90.5273 7.73242ZM90.7734 12.4082C89.9648 12.4082 89.2852 12.666 88.7344 13.1816C88.1953 13.6855 87.8789 14.4824 87.7852 15.5723H93.6914C93.6797 14.9863 93.5625 14.4531 93.3398 13.9727C93.1172 13.4922 92.7891 13.1113 92.3555 12.8301C91.9336 12.5488 91.4062 12.4082 90.7734 12.4082ZM115.559 28H108.615V7.97852H102.34V2.30078H121.816V7.97852H115.559V28ZM137.109 7.73242C137.484 7.73242 137.877 7.76172 138.287 7.82031C138.697 7.86719 139.002 7.9082 139.201 7.94336L138.586 14.4297C138.363 14.3711 138.076 14.3242 137.725 14.2891C137.373 14.2422 136.881 14.2188 136.248 14.2188C135.814 14.2188 135.352 14.2598 134.859 14.3418C134.367 14.4238 133.898 14.5996 133.453 14.8691C133.02 15.127 132.662 15.5254 132.381 16.0645C132.1 16.5918 131.959 17.3066 131.959 18.209V28H125.086V8.08398H130.201L131.273 11.2656H131.607C131.971 10.6094 132.434 10.0176 132.996 9.49023C133.57 8.95117 134.209 8.52344 134.912 8.20703C135.627 7.89062 136.359 7.73242 137.109 7.73242ZM151.717 7.73242C154.236 7.73242 156.205 8.35938 157.623 9.61328C159.041 10.8555 159.75 12.6309 159.75 14.9395V28H154.986L153.668 25.3633H153.527C152.965 26.0664 152.385 26.6406 151.787 27.0859C151.201 27.5195 150.527 27.8359 149.766 28.0352C149.004 28.2461 148.072 28.3516 146.971 28.3516C145.822 28.3516 144.791 28.1172 143.877 27.6484C142.963 27.1797 142.242 26.4707 141.715 25.5215C141.188 24.5723 140.924 23.3711 140.924 21.918C140.924 19.7852 141.662 18.2031 143.139 17.1719C144.615 16.1406 146.754 15.5605 149.555 15.4316L152.877 15.3262V15.0449C152.877 14.1543 152.654 13.5215 152.209 13.1465C151.775 12.7715 151.189 12.584 150.451 12.584C149.666 12.584 148.787 12.7246 147.814 13.0059C146.854 13.2754 145.887 13.627 144.914 14.0605L142.928 9.52539C144.076 8.93945 145.377 8.49414 146.83 8.18945C148.283 7.88477 149.912 7.73242 151.717 7.73242ZM152.912 19.1055L151.33 19.1758C150.064 19.2227 149.174 19.4453 148.658 19.8438C148.154 20.2305 147.902 20.7871 147.902 21.5137C147.902 22.1934 148.084 22.6973 148.447 23.0254C148.811 23.3418 149.291 23.5 149.889 23.5C150.721 23.5 151.43 23.2363 152.016 22.709C152.613 22.1816 152.912 21.4961 152.912 20.6523V19.1055ZM171.334 8.08398V28H164.461V8.08398H171.334ZM167.924 0.0683594C168.908 0.0683594 169.764 0.273438 170.49 0.683594C171.229 1.09375 171.598 1.9082 171.598 3.12695C171.598 4.31055 171.229 5.11328 170.49 5.53516C169.764 5.94531 168.908 6.15039 167.924 6.15039C166.916 6.15039 166.055 5.94531 165.34 5.53516C164.637 5.11328 164.285 4.31055 164.285 3.12695C164.285 1.9082 164.637 1.09375 165.34 0.683594C166.055 0.273438 166.916 0.0683594 167.924 0.0683594ZM188.596 7.73242C190.646 7.73242 192.322 8.3125 193.623 9.47266C194.924 10.6328 195.574 12.4902 195.574 15.0449V28H188.701V17.1367C188.701 15.8125 188.508 14.8164 188.121 14.1484C187.746 13.4688 187.137 13.1289 186.293 13.1289C184.992 13.1289 184.119 13.6621 183.674 14.7285C183.229 15.7832 183.006 17.3008 183.006 19.2812V28H176.133V8.08398H181.318L182.25 10.7207H182.514C182.936 10.0879 183.439 9.54883 184.025 9.10352C184.611 8.6582 185.285 8.31836 186.047 8.08398C186.809 7.84961 187.658 7.73242 188.596 7.73242Z" fill="#CF4D4F"/>
</svg>
