<svg width="113" height="25" viewBox="0 0 113 25" fill="none" xmlns="http://www.w3.org/2000/svg">
<path d="M0.652344 19V1.86719H14.2109V19H10.5898V4.89062H4.28516V19H0.652344ZM25.543 5.65234C27.0195 5.65234 28.2109 6.22656 29.1172 7.375C30.0312 8.52344 30.4883 10.207 30.4883 12.4258C30.4883 13.9102 30.2734 15.1602 29.8438 16.1758C29.4141 17.1836 28.8203 17.9453 28.0625 18.4609C27.3047 18.9766 26.4336 19.2344 25.4492 19.2344C24.8164 19.2344 24.2734 19.1562 23.8203 19C23.3672 18.8359 22.9805 18.6289 22.6602 18.3789C22.3398 18.1211 22.0625 17.8477 21.8281 17.5586H21.6406C21.7031 17.8711 21.75 18.1914 21.7812 18.5195C21.8125 18.8477 21.8281 19.168 21.8281 19.4805V24.7656H18.2539V5.89844H21.1602L21.6641 7.59766H21.8281C22.0625 7.24609 22.3477 6.92188 22.6836 6.625C23.0195 6.32812 23.4219 6.09375 23.8906 5.92188C24.3672 5.74219 24.918 5.65234 25.543 5.65234ZM24.3945 8.51172C23.7695 8.51172 23.2734 8.64062 22.9062 8.89844C22.5391 9.15625 22.2695 9.54297 22.0977 10.0586C21.9336 10.5742 21.8438 11.2266 21.8281 12.0156V12.4023C21.8281 13.2461 21.9062 13.9609 22.0625 14.5469C22.2266 15.1328 22.4961 15.5781 22.8711 15.8828C23.2539 16.1875 23.7773 16.3398 24.4414 16.3398C24.9883 16.3398 25.4375 16.1875 25.7891 15.8828C26.1406 15.5781 26.4023 15.1328 26.5742 14.5469C26.7539 13.9531 26.8438 13.2305 26.8438 12.3789C26.8438 11.0977 26.6445 10.1328 26.2461 9.48438C25.8477 8.83594 25.2305 8.51172 24.3945 8.51172ZM45.3477 12.4258C45.3477 13.5195 45.1992 14.4883 44.9023 15.332C44.6133 16.1758 44.1875 16.8906 43.625 17.4766C43.0703 18.0547 42.3984 18.4922 41.6094 18.7891C40.8281 19.0859 39.9453 19.2344 38.9609 19.2344C38.0391 19.2344 37.1914 19.0859 36.418 18.7891C35.6523 18.4922 34.9844 18.0547 34.4141 17.4766C33.8516 16.8906 33.4141 16.1758 33.1016 15.332C32.7969 14.4883 32.6445 13.5195 32.6445 12.4258C32.6445 10.9727 32.9023 9.74219 33.418 8.73438C33.9336 7.72656 34.668 6.96094 35.6211 6.4375C36.5742 5.91406 37.7109 5.65234 39.0312 5.65234C40.2578 5.65234 41.3438 5.91406 42.2891 6.4375C43.2422 6.96094 43.9883 7.72656 44.5273 8.73438C45.0742 9.74219 45.3477 10.9727 45.3477 12.4258ZM36.2891 12.4258C36.2891 13.2852 36.3828 14.0078 36.5703 14.5938C36.7578 15.1797 37.0508 15.6211 37.4492 15.918C37.8477 16.2148 38.3672 16.3633 39.0078 16.3633C39.6406 16.3633 40.1523 16.2148 40.543 15.918C40.9414 15.6211 41.2305 15.1797 41.4102 14.5938C41.5977 14.0078 41.6914 13.2852 41.6914 12.4258C41.6914 11.5586 41.5977 10.8398 41.4102 10.2695C41.2305 9.69141 40.9414 9.25781 40.543 8.96875C40.1445 8.67969 39.625 8.53516 38.9844 8.53516C38.0391 8.53516 37.3516 8.85938 36.9219 9.50781C36.5 10.1562 36.2891 11.1289 36.2891 12.4258ZM57.875 0.765625V5.82812C59.3906 5.95312 60.668 6.30859 61.707 6.89453C62.7461 7.47266 63.5352 8.23828 64.0742 9.19141C64.6133 10.1367 64.8828 11.2227 64.8828 12.4492C64.8828 13.668 64.6211 14.7539 64.0977 15.707C63.582 16.6602 62.8047 17.4297 61.7656 18.0156C60.7344 18.6016 59.4375 18.9609 57.875 19.0938V24.7656H54.5586V19.0938C53.0508 18.9531 51.7734 18.5898 50.7266 18.0039C49.6797 17.4102 48.8789 16.6406 48.3242 15.6953C47.7773 14.7422 47.5039 13.6602 47.5039 12.4492C47.5039 11.1992 47.7578 10.0977 48.2656 9.14453C48.7734 8.18359 49.5469 7.41797 50.5859 6.84766C51.6328 6.26953 52.957 5.92969 54.5586 5.82812V0.765625H57.875ZM54.5586 8.51172C53.8633 8.60547 53.2617 8.83203 52.7539 9.19141C52.2539 9.55078 51.8672 10.0117 51.5938 10.5742C51.3203 11.1289 51.1836 11.7539 51.1836 12.4492C51.1836 13.1602 51.3125 13.7969 51.5703 14.3594C51.8359 14.9141 52.2188 15.3672 52.7188 15.7188C53.2266 16.0703 53.8398 16.293 54.5586 16.3867V8.51172ZM57.875 8.55859V16.3867C58.5859 16.293 59.1875 16.0703 59.6797 15.7188C60.1797 15.3672 60.5586 14.9141 60.8164 14.3594C61.082 13.7969 61.2148 13.1602 61.2148 12.4492C61.2148 11.4023 60.9141 10.5273 60.3125 9.82422C59.7188 9.11328 58.9062 8.69141 57.875 8.55859ZM71.3047 5.89844V11.0781C71.3047 11.3438 71.293 11.6797 71.2695 12.0859C71.2539 12.4844 71.2305 12.8906 71.1992 13.3047C71.168 13.7188 71.1367 14.0898 71.1055 14.418C71.0742 14.7461 71.0508 14.9688 71.0352 15.0859L77.082 5.89844H81.3828V19H77.9258V13.7734C77.9258 13.3438 77.9414 12.8711 77.9727 12.3555C78.0039 11.832 78.0391 11.3398 78.0781 10.8789C78.1172 10.418 78.1445 10.0703 78.1602 9.83594L72.1367 19H67.8477V5.89844H71.3047ZM96.875 19H93.3008V8.58203H90.0078C89.8438 10.5039 89.6484 12.1406 89.4219 13.4922C89.1953 14.8438 88.9062 15.9453 88.5547 16.7969C88.2031 17.6406 87.7656 18.2578 87.2422 18.6484C86.7188 19.0391 86.0742 19.2344 85.3086 19.2344C84.8867 19.2344 84.5078 19.2031 84.1719 19.1406C83.8438 19.0781 83.543 18.9844 83.2695 18.8594V16C83.4414 16.0703 83.625 16.1289 83.8203 16.1758C84.0156 16.2148 84.2148 16.2344 84.418 16.2344C84.6445 16.2344 84.8594 16.1445 85.0625 15.9648C85.2656 15.7852 85.457 15.4766 85.6367 15.0391C85.8164 14.5938 85.9844 13.9805 86.1406 13.1992C86.3047 12.418 86.4531 11.4297 86.5859 10.2344C86.7188 9.03906 86.8438 7.59375 86.9609 5.89844H96.875V19ZM104.211 10.9609H106.73C108.074 10.9609 109.184 11.1016 110.059 11.3828C110.934 11.6641 111.586 12.0938 112.016 12.6719C112.445 13.2422 112.66 13.9609 112.66 14.8281C112.66 15.6719 112.465 16.4062 112.074 17.0312C111.684 17.6562 111.062 18.1406 110.211 18.4844C109.359 18.8281 108.246 19 106.871 19H100.637V5.89844H104.211V10.9609ZM109.086 14.875C109.086 14.3672 108.883 14 108.477 13.7734C108.07 13.5469 107.465 13.4336 106.66 13.4336H104.211V16.5273H106.707C107.402 16.5273 107.973 16.4023 108.418 16.1523C108.863 15.8945 109.086 15.4688 109.086 14.875Z" fill="#CF4D4F"/>
</svg>
