<svg width="198" height="30" viewBox="0 0 198 30" fill="none" xmlns="http://www.w3.org/2000/svg">
<path d="M7.65234 0.583984C10.416 0.583984 12.4326 1.17969 13.7021 2.37109C14.9717 3.55273 15.6064 5.18359 15.6064 7.26367C15.6064 8.20117 15.4648 9.09961 15.1816 9.95898C14.8984 10.8086 14.4346 11.5654 13.79 12.2295C13.1553 12.8936 12.3057 13.4209 11.2412 13.8115C10.1768 14.1924 8.86328 14.3828 7.30078 14.3828H5.35254V22H0.811523V0.583984H7.65234ZM7.41797 4.30469H5.35254V10.6621H6.84668C7.69629 10.6621 8.43359 10.5498 9.05859 10.3252C9.68359 10.1006 10.167 9.74902 10.5088 9.27051C10.8506 8.79199 11.0215 8.17676 11.0215 7.4248C11.0215 6.37012 10.7285 5.58887 10.1426 5.08105C9.55664 4.56348 8.64844 4.30469 7.41797 4.30469ZM26.0508 5.31543C27.5645 5.31543 28.8682 5.6084 29.9619 6.19434C31.0557 6.77051 31.9004 7.61035 32.4961 8.71387C33.0918 9.81738 33.3896 11.165 33.3896 12.7568V14.9248H22.8281C22.877 16.1846 23.2529 17.1758 23.9561 17.8984C24.6689 18.6113 25.6553 18.9678 26.915 18.9678C27.96 18.9678 28.917 18.8604 29.7861 18.6455C30.6553 18.4307 31.5488 18.1084 32.4668 17.6787V21.1357C31.6562 21.5361 30.8066 21.8291 29.918 22.0146C29.0391 22.2002 27.9697 22.293 26.71 22.293C25.0693 22.293 23.6143 21.9902 22.3447 21.3848C21.085 20.7793 20.0938 19.8564 19.3711 18.6162C18.6582 17.376 18.3018 15.8135 18.3018 13.9287C18.3018 12.0146 18.624 10.4229 19.2686 9.15332C19.9229 7.87402 20.8311 6.91699 21.9932 6.28223C23.1553 5.6377 24.5078 5.31543 26.0508 5.31543ZM26.0801 8.49414C25.2109 8.49414 24.4883 8.77246 23.9121 9.3291C23.3457 9.88574 23.0186 10.7598 22.9307 11.9512H29.2002C29.1904 11.2871 29.0684 10.6963 28.834 10.1787C28.6094 9.66113 28.2676 9.25098 27.8086 8.94824C27.3594 8.64551 26.7832 8.49414 26.0801 8.49414ZM48.3311 5.62305V8.97754H41.4902V22H37.0225V5.62305H48.3311ZM55.6992 5.62305V12.0977C55.6992 12.4297 55.6846 12.8496 55.6553 13.3574C55.6357 13.8555 55.6064 14.3633 55.5674 14.8809C55.5283 15.3984 55.4893 15.8623 55.4502 16.2725C55.4111 16.6826 55.3818 16.9609 55.3623 17.1074L62.9209 5.62305H68.2969V22H63.9756V15.4668C63.9756 14.9297 63.9951 14.3389 64.0342 13.6943C64.0732 13.04 64.1172 12.4248 64.166 11.8486C64.2148 11.2725 64.249 10.8379 64.2686 10.5449L56.7393 22H51.3779V5.62305H55.6992ZM79.6494 22.293C78.0283 22.293 76.6465 22 75.5039 21.4141C74.3613 20.8184 73.4922 19.9004 72.8965 18.6602C72.3008 17.4199 72.0029 15.833 72.0029 13.8994C72.0029 11.8975 72.3398 10.2666 73.0137 9.00684C73.6973 7.7373 74.6396 6.80469 75.8408 6.20898C77.0518 5.61328 78.4531 5.31543 80.0449 5.31543C81.1777 5.31543 82.1543 5.42773 82.9746 5.65234C83.8047 5.86719 84.5273 6.12598 85.1426 6.42871L83.8242 9.88574C83.1211 9.60254 82.4668 9.37305 81.8613 9.19727C81.2559 9.01172 80.6504 8.91895 80.0449 8.91895C79.2637 8.91895 78.6143 9.10449 78.0967 9.47559C77.5791 9.83691 77.1934 10.3838 76.9395 11.1162C76.6855 11.8486 76.5586 12.7666 76.5586 13.8701C76.5586 14.9541 76.6953 15.8525 76.9688 16.5654C77.2422 17.2783 77.6377 17.8105 78.1553 18.1621C78.6729 18.5039 79.3027 18.6748 80.0449 18.6748C80.9727 18.6748 81.7979 18.5527 82.5205 18.3086C83.2432 18.0547 83.9463 17.7031 84.6299 17.2539V21.0771C83.9463 21.5068 83.2285 21.8145 82.4766 22C81.7344 22.1953 80.792 22.293 79.6494 22.293ZM101.988 8.97754H96.627V22H92.1592V8.97754H86.7832V5.62305H101.988V8.97754ZM114.161 5.31543C116.007 5.31543 117.496 6.0332 118.629 7.46875C119.771 8.9043 120.343 11.0088 120.343 13.7822C120.343 15.6377 120.074 17.2002 119.537 18.4697C119 19.7295 118.258 20.6816 117.311 21.3262C116.363 21.9707 115.274 22.293 114.044 22.293C113.253 22.293 112.574 22.1953 112.008 22C111.441 21.7949 110.958 21.5361 110.558 21.2236C110.157 20.9014 109.811 20.5596 109.518 20.1982H109.283C109.361 20.5889 109.42 20.9893 109.459 21.3994C109.498 21.8096 109.518 22.21 109.518 22.6006V29.207H105.05V5.62305H108.683L109.312 7.74707H109.518C109.811 7.30762 110.167 6.90234 110.587 6.53125C111.007 6.16016 111.51 5.86719 112.096 5.65234C112.691 5.42773 113.38 5.31543 114.161 5.31543ZM112.726 8.88965C111.944 8.88965 111.324 9.05078 110.865 9.37305C110.406 9.69531 110.069 10.1787 109.854 10.8232C109.649 11.4678 109.537 12.2832 109.518 13.2695V13.7529C109.518 14.8076 109.615 15.7012 109.811 16.4336C110.016 17.166 110.353 17.7227 110.821 18.1035C111.3 18.4844 111.954 18.6748 112.784 18.6748C113.468 18.6748 114.029 18.4844 114.469 18.1035C114.908 17.7227 115.235 17.166 115.45 16.4336C115.675 15.6914 115.787 14.7881 115.787 13.7236C115.787 12.1221 115.538 10.916 115.04 10.1055C114.542 9.29492 113.771 8.88965 112.726 8.88965ZM130.743 5.28613C132.94 5.28613 134.625 5.76465 135.797 6.72168C136.969 7.67871 137.555 9.13379 137.555 11.0869V22H134.435L133.57 19.7734H133.453C132.984 20.3594 132.506 20.8379 132.018 21.209C131.529 21.5801 130.968 21.8535 130.333 22.0293C129.698 22.2051 128.927 22.293 128.019 22.293C127.052 22.293 126.183 22.1074 125.411 21.7363C124.649 21.3652 124.049 20.7988 123.609 20.0371C123.17 19.2656 122.95 18.2891 122.95 17.1074C122.95 15.3691 123.561 14.0898 124.781 13.2695C126.002 12.4395 127.833 11.9805 130.274 11.8926L133.116 11.8047V11.0869C133.116 10.2275 132.892 9.59766 132.442 9.19727C131.993 8.79688 131.368 8.59668 130.567 8.59668C129.776 8.59668 129 8.70898 128.238 8.93359C127.477 9.1582 126.715 9.44141 125.953 9.7832L124.474 6.76562C125.343 6.30664 126.314 5.94531 127.389 5.68164C128.473 5.41797 129.591 5.28613 130.743 5.28613ZM133.116 14.4121L131.388 14.4707C129.942 14.5098 128.937 14.7686 128.37 15.2471C127.813 15.7256 127.535 16.3555 127.535 17.1367C127.535 17.8203 127.735 18.3086 128.136 18.6016C128.536 18.8848 129.059 19.0264 129.703 19.0264C130.66 19.0264 131.466 18.7432 132.12 18.1768C132.784 17.6104 133.116 16.8047 133.116 15.7598V14.4121ZM160.04 27.874H156.026V22H142.169V5.62305H146.637V18.6455H153.17V5.62305H157.652V18.7334H160.04V27.874ZM167.145 5.62305V12.0977C167.145 12.4297 167.13 12.8496 167.101 13.3574C167.081 13.8555 167.052 14.3633 167.013 14.8809C166.974 15.3984 166.935 15.8623 166.896 16.2725C166.856 16.6826 166.827 16.9609 166.808 17.1074L174.366 5.62305H179.742V22H175.421V15.4668C175.421 14.9297 175.44 14.3389 175.479 13.6943C175.519 13.04 175.562 12.4248 175.611 11.8486C175.66 11.2725 175.694 10.8379 175.714 10.5449L168.185 22H162.823V5.62305H167.145ZM186.935 22H182.101L186.51 15.5254C185.953 15.291 185.431 14.9688 184.942 14.5586C184.454 14.1387 184.059 13.6113 183.756 12.9766C183.453 12.3418 183.302 11.5801 183.302 10.6914C183.302 9.06055 183.917 7.81055 185.147 6.94141C186.388 6.0625 187.984 5.62305 189.938 5.62305H197.555V22H193.087V15.9062H190.626L186.935 22ZM187.682 10.7207C187.682 11.4043 187.95 11.9414 188.487 12.332C189.034 12.7129 189.737 12.9033 190.597 12.9033H193.087V8.77246H190.025C189.225 8.77246 188.634 8.96777 188.253 9.3584C187.872 9.73926 187.682 10.1934 187.682 10.7207Z" fill="#CF4D4F"/>
</svg>
