<svg width="126" height="24" viewBox="0 0 126 24" fill="none" xmlns="http://www.w3.org/2000/svg">
<path d="M5.84375 0.867188C8.05469 0.867188 9.66797 1.34375 10.6836 2.29688C11.6992 3.24219 12.207 4.54688 12.207 6.21094C12.207 6.96094 12.0938 7.67969 11.8672 8.36719C11.6406 9.04688 11.2695 9.65234 10.7539 10.1836C10.2461 10.7148 9.56641 11.1367 8.71484 11.4492C7.86328 11.7539 6.8125 11.9062 5.5625 11.9062H4.00391V18H0.371094V0.867188H5.84375ZM5.65625 3.84375H4.00391V8.92969H5.19922C5.87891 8.92969 6.46875 8.83984 6.96875 8.66016C7.46875 8.48047 7.85547 8.19922 8.12891 7.81641C8.40234 7.43359 8.53906 6.94141 8.53906 6.33984C8.53906 5.49609 8.30469 4.87109 7.83594 4.46484C7.36719 4.05078 6.64062 3.84375 5.65625 3.84375ZM20.5625 4.65234C21.7734 4.65234 22.8164 4.88672 23.6914 5.35547C24.5664 5.81641 25.2422 6.48828 25.7188 7.37109C26.1953 8.25391 26.4336 9.33203 26.4336 10.6055V12.3398H17.9844C18.0234 13.3477 18.3242 14.1406 18.8867 14.7188C19.457 15.2891 20.2461 15.5742 21.2539 15.5742C22.0898 15.5742 22.8555 15.4883 23.5508 15.3164C24.2461 15.1445 24.9609 14.8867 25.6953 14.543V17.3086C25.0469 17.6289 24.3672 17.8633 23.6562 18.0117C22.9531 18.1602 22.0977 18.2344 21.0898 18.2344C19.7773 18.2344 18.6133 17.9922 17.5977 17.5078C16.5898 17.0234 15.7969 16.2852 15.2188 15.293C14.6484 14.3008 14.3633 13.0508 14.3633 11.543C14.3633 10.0117 14.6211 8.73828 15.1367 7.72266C15.6602 6.69922 16.3867 5.93359 17.3164 5.42578C18.2461 4.91016 19.3281 4.65234 20.5625 4.65234ZM20.5859 7.19531C19.8906 7.19531 19.3125 7.41797 18.8516 7.86328C18.3984 8.30859 18.1367 9.00781 18.0664 9.96094H23.082C23.0742 9.42969 22.9766 8.95703 22.7891 8.54297C22.6094 8.12891 22.3359 7.80078 21.9688 7.55859C21.6094 7.31641 21.1484 7.19531 20.5859 7.19531ZM34.1094 4.65234C35.0547 4.65234 35.9375 4.77734 36.7578 5.02734C37.5781 5.26953 38.2422 5.64844 38.75 6.16406C39.2578 6.67188 39.5117 7.32812 39.5117 8.13281C39.5117 8.92188 39.2734 9.55078 38.7969 10.0195C38.3203 10.4805 37.6875 10.8125 36.8984 11.0156V11.1328C37.4531 11.2656 37.9531 11.4453 38.3984 11.6719C38.8516 11.8984 39.2109 12.2109 39.4766 12.6094C39.7422 13.0078 39.875 13.5312 39.875 14.1797C39.875 14.9062 39.6445 15.5781 39.1836 16.1953C38.7227 16.8047 38.0156 17.2969 37.0625 17.6719C36.1172 18.0469 34.9023 18.2344 33.418 18.2344C32.7148 18.2344 32.0508 18.2031 31.4258 18.1406C30.8086 18.0781 30.2422 17.9883 29.7266 17.8711C29.2109 17.7461 28.7617 17.5977 28.3789 17.4258V14.4727C28.918 14.7227 29.582 14.9531 30.3711 15.1641C31.168 15.375 32.0156 15.4805 32.9141 15.4805C33.5625 15.4805 34.1484 15.4336 34.6719 15.3398C35.2031 15.2461 35.6211 15.0898 35.9258 14.8711C36.2383 14.6445 36.3945 14.3438 36.3945 13.9688C36.3945 13.6172 36.2578 13.3281 35.9844 13.1016C35.7188 12.8672 35.3086 12.6953 34.7539 12.5859C34.207 12.4688 33.5117 12.4102 32.668 12.4102H31.2852V9.9375H32.5977C33.7852 9.9375 34.7031 9.83984 35.3516 9.64453C36 9.44922 36.3242 9.08984 36.3242 8.56641C36.3242 8.14453 36.1172 7.82812 35.7031 7.61719C35.2891 7.40625 34.6055 7.30078 33.6523 7.30078C33.0352 7.30078 32.3555 7.375 31.6133 7.52344C30.8711 7.66406 30.1758 7.86719 29.5273 8.13281L28.4727 5.63672C29.2305 5.34766 30.0508 5.11328 30.9336 4.93359C31.8242 4.74609 32.8828 4.65234 34.1094 4.65234ZM40.8008 4.89844H44.7148L47.1875 12.2695C47.2656 12.5039 47.332 12.7422 47.3867 12.9844C47.4414 13.2266 47.4883 13.4766 47.5273 13.7344C47.5664 13.9922 47.5977 14.2617 47.6211 14.543H47.6914C47.7383 14.1211 47.8008 13.7266 47.8789 13.3594C47.9648 12.9922 48.0703 12.6289 48.1953 12.2695L50.6211 4.89844H54.4531L48.9102 19.6758C48.5742 20.582 48.1367 21.3359 47.5977 21.9375C47.0586 22.5469 46.4375 23.0039 45.7344 23.3086C45.0391 23.6133 44.2734 23.7656 43.4375 23.7656C43.0312 23.7656 42.6797 23.7422 42.3828 23.6953C42.0859 23.6562 41.832 23.6133 41.6211 23.5664V20.7305C41.7852 20.7695 41.9922 20.8047 42.2422 20.8359C42.4922 20.8672 42.7539 20.8828 43.0273 20.8828C43.5273 20.8828 43.957 20.7773 44.3164 20.5664C44.6758 20.3555 44.9766 20.0703 45.2188 19.7109C45.4609 19.3594 45.6523 18.9727 45.793 18.5508L46.0039 17.9062L40.8008 4.89844ZM68.0703 18H64.4961V7.58203H61.2031C61.0391 9.50391 60.8438 11.1406 60.6172 12.4922C60.3906 13.8438 60.1016 14.9453 59.75 15.7969C59.3984 16.6406 58.9609 17.2578 58.4375 17.6484C57.9141 18.0391 57.2695 18.2344 56.5039 18.2344C56.082 18.2344 55.7031 18.2031 55.3672 18.1406C55.0391 18.0781 54.7383 17.9844 54.4648 17.8594V15C54.6367 15.0703 54.8203 15.1289 55.0156 15.1758C55.2109 15.2148 55.4102 15.2344 55.6133 15.2344C55.8398 15.2344 56.0547 15.1445 56.2578 14.9648C56.4609 14.7852 56.6523 14.4766 56.832 14.0391C57.0117 13.5938 57.1797 12.9805 57.3359 12.1992C57.5 11.418 57.6484 10.4297 57.7812 9.23438C57.9141 8.03906 58.0391 6.59375 58.1562 4.89844H68.0703V18ZM75.4062 9.96094H77.9258C79.2695 9.96094 80.3789 10.1016 81.2539 10.3828C82.1289 10.6641 82.7812 11.0938 83.2109 11.6719C83.6406 12.2422 83.8555 12.9609 83.8555 13.8281C83.8555 14.6719 83.6602 15.4062 83.2695 16.0312C82.8789 16.6562 82.2578 17.1406 81.4062 17.4844C80.5547 17.8281 79.4414 18 78.0664 18H71.832V4.89844H75.4062V9.96094ZM80.2812 13.875C80.2812 13.3672 80.0781 13 79.6719 12.7734C79.2656 12.5469 78.6602 12.4336 77.8555 12.4336H75.4062V15.5273H77.9023C78.5977 15.5273 79.168 15.4023 79.6133 15.1523C80.0586 14.8945 80.2812 14.4688 80.2812 13.875ZM97.4141 7.58203H93.125V18H89.5508V7.58203H85.25V4.89844H97.4141V7.58203ZM105.23 4.62891C106.988 4.62891 108.336 5.01172 109.273 5.77734C110.211 6.54297 110.68 7.70703 110.68 9.26953V18H108.184L107.492 16.2188H107.398C107.023 16.6875 106.641 17.0703 106.25 17.3672C105.859 17.6641 105.41 17.8828 104.902 18.0234C104.395 18.1641 103.777 18.2344 103.051 18.2344C102.277 18.2344 101.582 18.0859 100.965 17.7891C100.355 17.4922 99.875 17.0391 99.5234 16.4297C99.1719 15.8125 98.9961 15.0312 98.9961 14.0859C98.9961 12.6953 99.4844 11.6719 100.461 11.0156C101.438 10.3516 102.902 9.98438 104.855 9.91406L107.129 9.84375V9.26953C107.129 8.58203 106.949 8.07812 106.59 7.75781C106.23 7.4375 105.73 7.27734 105.09 7.27734C104.457 7.27734 103.836 7.36719 103.227 7.54688C102.617 7.72656 102.008 7.95312 101.398 8.22656L100.215 5.8125C100.91 5.44531 101.688 5.15625 102.547 4.94531C103.414 4.73438 104.309 4.62891 105.23 4.62891ZM107.129 11.9297L105.746 11.9766C104.59 12.0078 103.785 12.2148 103.332 12.5977C102.887 12.9805 102.664 13.4844 102.664 14.1094C102.664 14.6562 102.824 15.0469 103.145 15.2812C103.465 15.5078 103.883 15.6211 104.398 15.6211C105.164 15.6211 105.809 15.3945 106.332 14.9414C106.863 14.4883 107.129 13.8438 107.129 13.0078V11.9297ZM125.211 7.58203H120.922V18H117.348V7.58203H113.047V4.89844H125.211V7.58203Z" fill="#CF4D4F"/>
</svg>
