<svg width="302" height="16" viewBox="0 0 302 16" fill="none" xmlns="http://www.w3.org/2000/svg">
<path d="M8.20703 12H6.69824L1.77637 6.56543V12H0.53125V1.29199H1.77637V6.47754L6.57373 1.29199H8.00195L3.26318 6.49219L8.20703 12ZM12.5063 3.84082C13.4634 3.84082 14.1738 4.05566 14.6377 4.48535C15.1016 4.91504 15.3335 5.60107 15.3335 6.54346V12H14.4473L14.2129 10.8135H14.1543C13.9297 11.1064 13.6953 11.353 13.4512 11.5532C13.207 11.7485 12.9238 11.8975 12.6016 12C12.2842 12.0977 11.8936 12.1465 11.4297 12.1465C10.9414 12.1465 10.5068 12.061 10.126 11.8901C9.75 11.7192 9.45215 11.4604 9.23242 11.1138C9.01758 10.7671 8.91016 10.3276 8.91016 9.79541C8.91016 8.99463 9.22754 8.37939 9.8623 7.94971C10.4971 7.52002 11.4639 7.28564 12.7627 7.24658L14.147 7.18799V6.69727C14.147 6.00391 13.998 5.51807 13.7002 5.23975C13.4023 4.96143 12.9824 4.82227 12.4404 4.82227C12.0205 4.82227 11.6201 4.8833 11.2393 5.00537C10.8584 5.12744 10.4971 5.27148 10.1553 5.4375L9.78174 4.51465C10.1431 4.3291 10.5581 4.17041 11.0269 4.03857C11.4956 3.90674 11.9888 3.84082 12.5063 3.84082ZM14.1323 8.04492L12.9092 8.09619C11.9082 8.13525 11.2026 8.29883 10.7925 8.58691C10.3823 8.875 10.1772 9.28271 10.1772 9.81006C10.1772 10.269 10.3164 10.6084 10.5947 10.8281C10.873 11.0479 11.2417 11.1577 11.7007 11.1577C12.4136 11.1577 12.9971 10.96 13.4512 10.5645C13.9053 10.1689 14.1323 9.57568 14.1323 8.78467V8.04492ZM22.5186 3.97266H23.8589L20.3945 7.84717L24.1372 12H22.709L19.0615 7.92773V12H17.8384V3.97266H19.0615V7.86914L22.5186 3.97266ZM29.0664 7.18066C29.0664 6.03809 29.1763 5.06396 29.396 4.2583C29.6157 3.44775 29.9551 2.79834 30.4141 2.31006C30.8779 1.81689 31.4736 1.47998 32.2012 1.29932C32.8262 1.12842 33.4609 0.981934 34.1055 0.859863C34.75 0.73291 35.3774 0.623047 35.9878 0.530273L36.2002 1.59961C35.8926 1.64355 35.5703 1.69482 35.2334 1.75342C34.8965 1.80713 34.5596 1.86572 34.2227 1.9292C33.8857 1.98779 33.5684 2.05127 33.2705 2.11963C32.9727 2.18311 32.709 2.24902 32.4795 2.31738C32.0645 2.42969 31.7056 2.625 31.4028 2.90332C31.105 3.18164 30.8682 3.56494 30.6924 4.05322C30.5215 4.5415 30.4189 5.15674 30.3848 5.89893H30.4727C30.6191 5.68408 30.8193 5.47168 31.0732 5.26172C31.3271 5.05176 31.6299 4.87842 31.9814 4.7417C32.333 4.6001 32.7285 4.5293 33.168 4.5293C33.8613 4.5293 34.4399 4.68066 34.9038 4.9834C35.3677 5.28125 35.7168 5.70117 35.9512 6.24316C36.1855 6.78516 36.3027 7.41992 36.3027 8.14746C36.3027 9.02148 36.1514 9.75635 35.8486 10.3521C35.5508 10.9478 35.1309 11.397 34.5889 11.6997C34.0469 11.9976 33.4097 12.1465 32.6772 12.1465C32.1108 12.1465 31.603 12.0366 31.1538 11.8169C30.7095 11.5972 30.3311 11.2749 30.0186 10.8501C29.7109 10.4253 29.4741 9.90527 29.3081 9.29004C29.147 8.6748 29.0664 7.97168 29.0664 7.18066ZM32.7725 11.1357C33.2363 11.1357 33.6343 11.0381 33.9663 10.8428C34.3032 10.6475 34.562 10.3398 34.7427 9.91992C34.9282 9.49512 35.021 8.94336 35.021 8.26465C35.021 7.41504 34.8574 6.75098 34.5303 6.27246C34.208 5.78906 33.6904 5.54736 32.9775 5.54736C32.5332 5.54736 32.1304 5.64258 31.769 5.83301C31.4077 6.01855 31.1025 6.24072 30.8535 6.49951C30.6045 6.7583 30.4238 6.99023 30.3115 7.19531C30.3115 7.69336 30.3481 8.17676 30.4214 8.64551C30.4946 9.11426 30.6216 9.53662 30.8022 9.9126C30.9829 10.2886 31.2319 10.5864 31.5493 10.8062C31.8716 11.0259 32.2793 11.1357 32.7725 11.1357ZM37.1377 3.97266H38.4414L40.2139 8.63086C40.3164 8.9043 40.4116 9.16797 40.4995 9.42188C40.5874 9.6709 40.6655 9.91016 40.7339 10.1396C40.8022 10.3691 40.856 10.5913 40.895 10.8062H40.9463C41.0146 10.562 41.1123 10.2422 41.2393 9.84668C41.3662 9.44629 41.5029 9.03857 41.6494 8.62354L43.3267 3.97266H44.6377L41.144 13.1792C40.9585 13.6724 40.7412 14.1021 40.4922 14.4683C40.248 14.8345 39.9502 15.1152 39.5986 15.3105C39.2471 15.5107 38.8223 15.6108 38.3242 15.6108C38.0947 15.6108 37.8921 15.5962 37.7163 15.5669C37.5405 15.5425 37.3892 15.5132 37.2622 15.479V14.5049C37.3696 14.5293 37.499 14.5513 37.6504 14.5708C37.8066 14.5903 37.9678 14.6001 38.1338 14.6001C38.4365 14.6001 38.6978 14.5415 38.9175 14.4243C39.1421 14.312 39.335 14.146 39.4961 13.9263C39.6572 13.7065 39.7964 13.4453 39.9136 13.1426L40.353 12.0146L37.1377 3.97266ZM51.8008 3.97266V10.9673H52.9507V14.7759H51.7715V12H46.0879V14.7759H44.9233V10.9673H45.5532C46.0122 10.3325 46.3931 9.63672 46.6958 8.87988C46.9985 8.12305 47.228 7.32959 47.3843 6.49951C47.5405 5.66455 47.6235 4.82227 47.6333 3.97266H51.8008ZM50.6216 4.93945H48.7173C48.6733 5.65234 48.5684 6.37744 48.4023 7.11475C48.2412 7.85205 48.0264 8.55518 47.7578 9.22412C47.4893 9.88818 47.1768 10.4692 46.8203 10.9673H50.6216V4.93945ZM57.6382 3.82617C58.3218 3.82617 58.9077 3.97754 59.396 4.28027C59.8843 4.58301 60.2578 5.00781 60.5166 5.55469C60.7754 6.09668 60.9048 6.73145 60.9048 7.45898V8.21338H55.3604C55.375 9.15576 55.6094 9.87354 56.0635 10.3667C56.5176 10.8599 57.1572 11.1064 57.9824 11.1064C58.4902 11.1064 58.9395 11.0601 59.3301 10.9673C59.7207 10.8745 60.126 10.7378 60.5459 10.5571V11.6265C60.1406 11.8071 59.7378 11.939 59.3374 12.022C58.9419 12.105 58.4731 12.1465 57.9312 12.1465C57.1597 12.1465 56.4858 11.9902 55.9097 11.6777C55.3384 11.3604 54.894 10.8965 54.5767 10.2861C54.2593 9.67578 54.1006 8.92871 54.1006 8.04492C54.1006 7.18066 54.2446 6.43359 54.5327 5.80371C54.8257 5.16895 55.2358 4.68066 55.7632 4.33887C56.2954 3.99707 56.9204 3.82617 57.6382 3.82617ZM57.6235 4.82227C56.9741 4.82227 56.4565 5.03467 56.0708 5.45947C55.6851 5.88428 55.4556 6.47754 55.3823 7.23926H59.6304C59.6255 6.76074 59.5498 6.34082 59.4033 5.97949C59.2617 5.61328 59.0444 5.33008 58.7515 5.12988C58.4585 4.9248 58.0825 4.82227 57.6235 4.82227ZM68.4414 5.00537H65.7974V12H64.5962V5.00537H61.9888V3.97266H68.4414V5.00537ZM73.1216 3.82617C73.8052 3.82617 74.3911 3.97754 74.8794 4.28027C75.3677 4.58301 75.7412 5.00781 76 5.55469C76.2588 6.09668 76.3882 6.73145 76.3882 7.45898V8.21338H70.8438C70.8584 9.15576 71.0928 9.87354 71.5469 10.3667C72.001 10.8599 72.6406 11.1064 73.4658 11.1064C73.9736 11.1064 74.4229 11.0601 74.8135 10.9673C75.2041 10.8745 75.6094 10.7378 76.0293 10.5571V11.6265C75.624 11.8071 75.2212 11.939 74.8208 12.022C74.4253 12.105 73.9565 12.1465 73.4146 12.1465C72.6431 12.1465 71.9692 11.9902 71.3931 11.6777C70.8218 11.3604 70.3774 10.8965 70.0601 10.2861C69.7427 9.67578 69.584 8.92871 69.584 8.04492C69.584 7.18066 69.728 6.43359 70.0161 5.80371C70.3091 5.16895 70.7192 4.68066 71.2466 4.33887C71.7788 3.99707 72.4038 3.82617 73.1216 3.82617ZM73.1069 4.82227C72.4575 4.82227 71.9399 5.03467 71.5542 5.45947C71.1685 5.88428 70.939 6.47754 70.8657 7.23926H75.1138C75.1089 6.76074 75.0332 6.34082 74.8867 5.97949C74.7451 5.61328 74.5278 5.33008 74.2349 5.12988C73.9419 4.9248 73.5659 4.82227 73.1069 4.82227ZM87.2207 3.97266V5.00537H83.5732V12H82.3501V3.97266H87.2207ZM95.7461 7.97168C95.7461 8.63086 95.6606 9.21924 95.4897 9.73682C95.3188 10.2544 95.0723 10.6914 94.75 11.0479C94.4277 11.4043 94.0371 11.6777 93.5781 11.8682C93.124 12.0537 92.6089 12.1465 92.0327 12.1465C91.4956 12.1465 91.0024 12.0537 90.5532 11.8682C90.1089 11.6777 89.7231 11.4043 89.396 11.0479C89.0737 10.6914 88.8223 10.2544 88.6416 9.73682C88.4658 9.21924 88.3779 8.63086 88.3779 7.97168C88.3779 7.09277 88.5269 6.3457 88.8247 5.73047C89.1226 5.11035 89.5474 4.63916 90.0991 4.31689C90.6558 3.98975 91.3174 3.82617 92.084 3.82617C92.8164 3.82617 93.4561 3.98975 94.0029 4.31689C94.5547 4.64404 94.9819 5.11768 95.2847 5.73779C95.5923 6.35303 95.7461 7.09766 95.7461 7.97168ZM89.6377 7.97168C89.6377 8.61621 89.7231 9.17529 89.894 9.64893C90.0649 10.1226 90.3286 10.4888 90.6851 10.7476C91.0415 11.0063 91.5005 11.1357 92.062 11.1357C92.6187 11.1357 93.0752 11.0063 93.4316 10.7476C93.793 10.4888 94.0591 10.1226 94.23 9.64893C94.4009 9.17529 94.4863 8.61621 94.4863 7.97168C94.4863 7.33203 94.4009 6.78027 94.23 6.31641C94.0591 5.84766 93.7954 5.48633 93.439 5.23242C93.0825 4.97852 92.6211 4.85156 92.0547 4.85156C91.2197 4.85156 90.6069 5.12744 90.2163 5.6792C89.8306 6.23096 89.6377 6.99512 89.6377 7.97168ZM103.319 5.00537H100.675V12H99.4741V5.00537H96.8667V3.97266H103.319V5.00537ZM111.83 7.97168C111.83 8.63086 111.745 9.21924 111.574 9.73682C111.403 10.2544 111.156 10.6914 110.834 11.0479C110.512 11.4043 110.121 11.6777 109.662 11.8682C109.208 12.0537 108.693 12.1465 108.117 12.1465C107.58 12.1465 107.086 12.0537 106.637 11.8682C106.193 11.6777 105.807 11.4043 105.48 11.0479C105.158 10.6914 104.906 10.2544 104.726 9.73682C104.55 9.21924 104.462 8.63086 104.462 7.97168C104.462 7.09277 104.611 6.3457 104.909 5.73047C105.207 5.11035 105.631 4.63916 106.183 4.31689C106.74 3.98975 107.401 3.82617 108.168 3.82617C108.9 3.82617 109.54 3.98975 110.087 4.31689C110.639 4.64404 111.066 5.11768 111.369 5.73779C111.676 6.35303 111.83 7.09766 111.83 7.97168ZM105.722 7.97168C105.722 8.61621 105.807 9.17529 105.978 9.64893C106.149 10.1226 106.413 10.4888 106.769 10.7476C107.125 11.0063 107.584 11.1357 108.146 11.1357C108.703 11.1357 109.159 11.0063 109.516 10.7476C109.877 10.4888 110.143 10.1226 110.314 9.64893C110.485 9.17529 110.57 8.61621 110.57 7.97168C110.57 7.33203 110.485 6.78027 110.314 6.31641C110.143 5.84766 109.879 5.48633 109.523 5.23242C109.167 4.97852 108.705 4.85156 108.139 4.85156C107.304 4.85156 106.691 5.12744 106.3 5.6792C105.915 6.23096 105.722 6.99512 105.722 7.97168ZM120.312 5.98682C120.312 6.48975 120.165 6.88281 119.872 7.16602C119.579 7.44434 119.201 7.63232 118.737 7.72998V7.78857C119.24 7.85693 119.672 8.0376 120.033 8.33057C120.399 8.61865 120.583 9.06055 120.583 9.65625C120.583 10.1152 120.473 10.5205 120.253 10.8721C120.033 11.2236 119.689 11.4995 119.22 11.6997C118.751 11.8999 118.141 12 117.389 12H113.932V3.97266H117.36C117.936 3.97266 118.444 4.03857 118.883 4.17041C119.328 4.29736 119.677 4.50732 119.931 4.80029C120.185 5.09326 120.312 5.48877 120.312 5.98682ZM119.315 9.65625C119.315 9.18262 119.135 8.84082 118.773 8.63086C118.417 8.4209 117.897 8.31592 117.213 8.31592H115.155V11.0112H117.243C117.917 11.0112 118.429 10.9087 118.781 10.7036C119.137 10.4937 119.315 10.1445 119.315 9.65625ZM119.074 6.12598C119.074 5.74512 118.935 5.46191 118.656 5.27637C118.378 5.08594 117.921 4.99072 117.287 4.99072H115.155V7.29785H117.074C117.733 7.29785 118.231 7.20264 118.568 7.01221C118.905 6.82178 119.074 6.52637 119.074 6.12598ZM122.545 12V3.97266H123.769V7.2832H125.966C126.649 7.2832 127.211 7.36865 127.65 7.53955C128.095 7.71045 128.424 7.96436 128.639 8.30127C128.854 8.63818 128.961 9.05566 128.961 9.55371C128.961 10.0518 128.854 10.4839 128.639 10.8501C128.429 11.2163 128.097 11.4995 127.643 11.6997C127.194 11.8999 126.608 12 125.885 12H122.545ZM123.769 11.0112H125.768C126.374 11.0112 126.857 10.9038 127.218 10.689C127.58 10.4741 127.76 10.1152 127.76 9.6123C127.76 9.11914 127.592 8.77734 127.255 8.58691C126.918 8.3916 126.435 8.29395 125.805 8.29395H123.769V11.0112ZM130.287 12V3.97266H131.503V12H130.287ZM139.193 3.97266V7.3418H143.668V3.97266H144.884V12H143.668V8.37451H139.193V12H137.97V3.97266H139.193ZM150.465 3.84082C151.422 3.84082 152.133 4.05566 152.597 4.48535C153.061 4.91504 153.292 5.60107 153.292 6.54346V12H152.406L152.172 10.8135H152.113C151.889 11.1064 151.654 11.353 151.41 11.5532C151.166 11.7485 150.883 11.8975 150.561 12C150.243 12.0977 149.853 12.1465 149.389 12.1465C148.9 12.1465 148.466 12.061 148.085 11.8901C147.709 11.7192 147.411 11.4604 147.191 11.1138C146.977 10.7671 146.869 10.3276 146.869 9.79541C146.869 8.99463 147.187 8.37939 147.821 7.94971C148.456 7.52002 149.423 7.28564 150.722 7.24658L152.106 7.18799V6.69727C152.106 6.00391 151.957 5.51807 151.659 5.23975C151.361 4.96143 150.941 4.82227 150.399 4.82227C149.979 4.82227 149.579 4.8833 149.198 5.00537C148.817 5.12744 148.456 5.27148 148.114 5.4375L147.741 4.51465C148.102 4.3291 148.517 4.17041 148.986 4.03857C149.455 3.90674 149.948 3.84082 150.465 3.84082ZM152.091 8.04492L150.868 8.09619C149.867 8.13525 149.162 8.29883 148.751 8.58691C148.341 8.875 148.136 9.28271 148.136 9.81006C148.136 10.269 148.275 10.6084 148.554 10.8281C148.832 11.0479 149.201 11.1577 149.66 11.1577C150.373 11.1577 150.956 10.96 151.41 10.5645C151.864 10.1689 152.091 9.57568 152.091 8.78467V8.04492ZM165.202 3.97266L161.862 7.87646L165.487 12H164.096L160.58 7.92773V12H159.445V7.92773L155.937 12H154.545L158.17 7.87646L154.823 3.97266H156.164L159.445 7.86914V3.97266H160.58V7.86914L163.876 3.97266H165.202ZM175.302 3.97266V12H174.203V6.77051C174.203 6.55566 174.208 6.33838 174.218 6.11865C174.232 5.89404 174.25 5.66943 174.269 5.44482H174.225L171.559 12H170.526L167.926 5.44482H167.882C167.897 5.66943 167.907 5.89404 167.912 6.11865C167.921 6.33838 167.926 6.57031 167.926 6.81445V12H166.82V3.97266H168.454L171.046 10.5352L173.676 3.97266H175.302ZM178.986 3.97266V9.01904C178.986 9.1167 178.983 9.24365 178.979 9.3999C178.974 9.55127 178.966 9.71484 178.957 9.89062C178.947 10.0615 178.937 10.2275 178.927 10.3887C178.922 10.5449 178.915 10.6743 178.905 10.7769L183.285 3.97266H184.779V12H183.644V7.07812C183.644 6.92188 183.646 6.72168 183.651 6.47754C183.656 6.2334 183.664 5.99414 183.673 5.75977C183.683 5.52051 183.69 5.33496 183.695 5.20312L179.33 12H177.829V3.97266H178.986ZM192.836 5.00537H190.192V12H188.991V5.00537H186.383V3.97266H192.836V5.00537ZM197.516 3.82617C198.2 3.82617 198.786 3.97754 199.274 4.28027C199.762 4.58301 200.136 5.00781 200.395 5.55469C200.653 6.09668 200.783 6.73145 200.783 7.45898V8.21338H195.238C195.253 9.15576 195.487 9.87354 195.941 10.3667C196.396 10.8599 197.035 11.1064 197.86 11.1064C198.368 11.1064 198.817 11.0601 199.208 10.9673C199.599 10.8745 200.004 10.7378 200.424 10.5571V11.6265C200.019 11.8071 199.616 11.939 199.215 12.022C198.82 12.105 198.351 12.1465 197.809 12.1465C197.038 12.1465 196.364 11.9902 195.788 11.6777C195.216 11.3604 194.772 10.8965 194.455 10.2861C194.137 9.67578 193.979 8.92871 193.979 8.04492C193.979 7.18066 194.123 6.43359 194.411 5.80371C194.704 5.16895 195.114 4.68066 195.641 4.33887C196.173 3.99707 196.798 3.82617 197.516 3.82617ZM197.501 4.82227C196.852 4.82227 196.334 5.03467 195.949 5.45947C195.563 5.88428 195.333 6.47754 195.26 7.23926H199.508C199.503 6.76074 199.428 6.34082 199.281 5.97949C199.14 5.61328 198.922 5.33008 198.629 5.12988C198.336 4.9248 197.96 4.82227 197.501 4.82227ZM207.968 3.97266V7.3418H212.443V3.97266H213.659V12H212.443V8.37451H207.968V12H206.745V3.97266H207.968ZM219.24 3.84082C220.197 3.84082 220.907 4.05566 221.371 4.48535C221.835 4.91504 222.067 5.60107 222.067 6.54346V12H221.181L220.946 10.8135H220.888C220.663 11.1064 220.429 11.353 220.185 11.5532C219.94 11.7485 219.657 11.8975 219.335 12C219.018 12.0977 218.627 12.1465 218.163 12.1465C217.675 12.1465 217.24 12.061 216.859 11.8901C216.483 11.7192 216.186 11.4604 215.966 11.1138C215.751 10.7671 215.644 10.3276 215.644 9.79541C215.644 8.99463 215.961 8.37939 216.596 7.94971C217.23 7.52002 218.197 7.28564 219.496 7.24658L220.88 7.18799V6.69727C220.88 6.00391 220.731 5.51807 220.434 5.23975C220.136 4.96143 219.716 4.82227 219.174 4.82227C218.754 4.82227 218.354 4.8833 217.973 5.00537C217.592 5.12744 217.23 5.27148 216.889 5.4375L216.515 4.51465C216.876 4.3291 217.292 4.17041 217.76 4.03857C218.229 3.90674 218.722 3.84082 219.24 3.84082ZM220.866 8.04492L219.643 8.09619C218.642 8.13525 217.936 8.29883 217.526 8.58691C217.116 8.875 216.911 9.28271 216.911 9.81006C216.911 10.269 217.05 10.6084 217.328 10.8281C217.606 11.0479 217.975 11.1577 218.434 11.1577C219.147 11.1577 219.73 10.96 220.185 10.5645C220.639 10.1689 220.866 9.57568 220.866 8.78467V8.04492ZM236.942 3.97266V12H235.844V6.77051C235.844 6.55566 235.849 6.33838 235.858 6.11865C235.873 5.89404 235.89 5.66943 235.91 5.44482H235.866L233.2 12H232.167L229.567 5.44482H229.523C229.538 5.66943 229.547 5.89404 229.552 6.11865C229.562 6.33838 229.567 6.57031 229.567 6.81445V12H228.461V3.97266H230.094L232.687 10.5352L235.316 3.97266H236.942ZM240.626 3.97266V9.01904C240.626 9.1167 240.624 9.24365 240.619 9.3999C240.614 9.55127 240.607 9.71484 240.597 9.89062C240.587 10.0615 240.578 10.2275 240.568 10.3887C240.563 10.5449 240.556 10.6743 240.546 10.7769L244.926 3.97266H246.42V12H245.285V7.07812C245.285 6.92188 245.287 6.72168 245.292 6.47754C245.297 6.2334 245.304 5.99414 245.314 5.75977C245.324 5.52051 245.331 5.33496 245.336 5.20312L240.971 12H239.469V3.97266H240.626ZM253.686 3.97266H255.026L251.562 7.84717L255.304 12H253.876L250.229 7.92773V12H249.005V3.97266H250.229V7.86914L253.686 3.97266ZM260.526 3.82617C261.527 3.82617 262.326 4.17041 262.921 4.85889C263.517 5.54736 263.815 6.58252 263.815 7.96436C263.815 8.87744 263.678 9.64404 263.405 10.2642C263.131 10.8843 262.746 11.353 262.248 11.6704C261.754 11.9878 261.171 12.1465 260.497 12.1465C260.072 12.1465 259.699 12.0903 259.376 11.978C259.054 11.8657 258.778 11.7144 258.549 11.5239C258.319 11.3335 258.129 11.126 257.978 10.9014H257.89C257.904 11.0918 257.921 11.3213 257.941 11.5898C257.965 11.8584 257.978 12.0928 257.978 12.293V15.5889H256.754V3.97266H257.758L257.919 5.15918H257.978C258.134 4.91504 258.324 4.69287 258.549 4.49268C258.773 4.2876 259.047 4.12646 259.369 4.00928C259.696 3.88721 260.082 3.82617 260.526 3.82617ZM260.314 4.85156C259.757 4.85156 259.308 4.95898 258.966 5.17383C258.629 5.38867 258.383 5.71094 258.227 6.14062C258.07 6.56543 257.987 7.1001 257.978 7.74463V7.979C257.978 8.65771 258.051 9.23145 258.197 9.7002C258.349 10.1689 258.595 10.5254 258.937 10.7695C259.284 11.0137 259.748 11.1357 260.329 11.1357C260.827 11.1357 261.242 11.0015 261.574 10.7329C261.906 10.4644 262.152 10.0908 262.313 9.6123C262.479 9.12891 262.562 8.57471 262.562 7.94971C262.562 7.00244 262.377 6.25049 262.006 5.69385C261.64 5.13232 261.076 4.85156 260.314 4.85156ZM272.86 7.97168C272.86 8.63086 272.775 9.21924 272.604 9.73682C272.433 10.2544 272.187 10.6914 271.864 11.0479C271.542 11.4043 271.151 11.6777 270.692 11.8682C270.238 12.0537 269.723 12.1465 269.147 12.1465C268.61 12.1465 268.117 12.0537 267.667 11.8682C267.223 11.6777 266.837 11.4043 266.51 11.0479C266.188 10.6914 265.937 10.2544 265.756 9.73682C265.58 9.21924 265.492 8.63086 265.492 7.97168C265.492 7.09277 265.641 6.3457 265.939 5.73047C266.237 5.11035 266.662 4.63916 267.213 4.31689C267.77 3.98975 268.432 3.82617 269.198 3.82617C269.931 3.82617 270.57 3.98975 271.117 4.31689C271.669 4.64404 272.096 5.11768 272.399 5.73779C272.707 6.35303 272.86 7.09766 272.86 7.97168ZM266.752 7.97168C266.752 8.61621 266.837 9.17529 267.008 9.64893C267.179 10.1226 267.443 10.4888 267.799 10.7476C268.156 11.0063 268.615 11.1357 269.176 11.1357C269.733 11.1357 270.189 11.0063 270.546 10.7476C270.907 10.4888 271.173 10.1226 271.344 9.64893C271.515 9.17529 271.601 8.61621 271.601 7.97168C271.601 7.33203 271.515 6.78027 271.344 6.31641C271.173 5.84766 270.91 5.48633 270.553 5.23242C270.197 4.97852 269.735 4.85156 269.169 4.85156C268.334 4.85156 267.721 5.12744 267.331 5.6792C266.945 6.23096 266.752 6.99512 266.752 7.97168ZM279.628 0.603516V3.85547C280.424 3.92383 281.117 4.13135 281.708 4.47803C282.299 4.81982 282.758 5.28613 283.085 5.87695C283.412 6.46777 283.576 7.1709 283.576 7.98633C283.576 8.78711 283.417 9.48535 283.1 10.0811C282.787 10.6768 282.335 11.1479 281.745 11.4946C281.159 11.8413 280.453 12.0488 279.628 12.1172V15.6035H278.441V12.1172C277.646 12.0586 276.952 11.8584 276.361 11.5166C275.775 11.1699 275.319 10.6987 274.992 10.103C274.665 9.50732 274.501 8.80176 274.501 7.98633C274.501 7.1709 274.657 6.46777 274.97 5.87695C275.287 5.28125 275.741 4.8125 276.332 4.4707C276.923 4.12402 277.638 3.91895 278.478 3.85547V0.603516H279.628ZM278.478 4.86621C277.858 4.91992 277.348 5.07617 276.947 5.33496C276.547 5.59375 276.249 5.94531 276.054 6.38965C275.863 6.83398 275.768 7.36621 275.768 7.98633C275.768 8.60645 275.866 9.14111 276.061 9.59033C276.256 10.0347 276.554 10.3862 276.955 10.645C277.355 10.9038 277.863 11.0625 278.478 11.1211V4.86621ZM279.628 4.88086V11.1211C280.243 11.0576 280.749 10.894 281.144 10.6304C281.544 10.3667 281.84 10.0127 282.03 9.56836C282.226 9.12402 282.323 8.59668 282.323 7.98633C282.323 7.05859 282.101 6.3335 281.657 5.81104C281.212 5.28369 280.536 4.97363 279.628 4.88086ZM292.621 7.97168C292.621 8.63086 292.536 9.21924 292.365 9.73682C292.194 10.2544 291.947 10.6914 291.625 11.0479C291.303 11.4043 290.912 11.6777 290.453 11.8682C289.999 12.0537 289.484 12.1465 288.908 12.1465C288.371 12.1465 287.877 12.0537 287.428 11.8682C286.984 11.6777 286.598 11.4043 286.271 11.0479C285.949 10.6914 285.697 10.2544 285.517 9.73682C285.341 9.21924 285.253 8.63086 285.253 7.97168C285.253 7.09277 285.402 6.3457 285.7 5.73047C285.998 5.11035 286.422 4.63916 286.974 4.31689C287.531 3.98975 288.192 3.82617 288.959 3.82617C289.691 3.82617 290.331 3.98975 290.878 4.31689C291.43 4.64404 291.857 5.11768 292.16 5.73779C292.467 6.35303 292.621 7.09766 292.621 7.97168ZM286.513 7.97168C286.513 8.61621 286.598 9.17529 286.769 9.64893C286.94 10.1226 287.204 10.4888 287.56 10.7476C287.917 11.0063 288.375 11.1357 288.937 11.1357C289.494 11.1357 289.95 11.0063 290.307 10.7476C290.668 10.4888 290.934 10.1226 291.105 9.64893C291.276 9.17529 291.361 8.61621 291.361 7.97168C291.361 7.33203 291.276 6.78027 291.105 6.31641C290.934 5.84766 290.67 5.48633 290.314 5.23242C289.958 4.97852 289.496 4.85156 288.93 4.85156C288.095 4.85156 287.482 5.12744 287.091 5.6792C286.706 6.23096 286.513 6.99512 286.513 7.97168ZM295.946 3.97266V7.3418H300.421V3.97266H301.637V12H300.421V8.37451H295.946V12H294.723V3.97266H295.946Z" fill="#CF4D4F" fill-opacity="0.5"/>
</svg>
