<svg width="150" height="24" viewBox="0 0 150 24" fill="none" xmlns="http://www.w3.org/2000/svg">
<path d="M8.78516 18H5.15234V3.89062H0.5V0.867188H13.4375V3.89062H8.78516V18ZM23.082 4.65234C24.5586 4.65234 25.75 5.22656 26.6562 6.375C27.5703 7.52344 28.0273 9.20703 28.0273 11.4258C28.0273 12.9102 27.8125 14.1602 27.3828 15.1758C26.9531 16.1836 26.3594 16.9453 25.6016 17.4609C24.8438 17.9766 23.9727 18.2344 22.9883 18.2344C22.3555 18.2344 21.8125 18.1562 21.3594 18C20.9062 17.8359 20.5195 17.6289 20.1992 17.3789C19.8789 17.1211 19.6016 16.8477 19.3672 16.5586H19.1797C19.2422 16.8711 19.2891 17.1914 19.3203 17.5195C19.3516 17.8477 19.3672 18.168 19.3672 18.4805V23.7656H15.793V4.89844H18.6992L19.2031 6.59766H19.3672C19.6016 6.24609 19.8867 5.92188 20.2227 5.625C20.5586 5.32812 20.9609 5.09375 21.4297 4.92188C21.9062 4.74219 22.457 4.65234 23.082 4.65234ZM21.9336 7.51172C21.3086 7.51172 20.8125 7.64062 20.4453 7.89844C20.0781 8.15625 19.8086 8.54297 19.6367 9.05859C19.4727 9.57422 19.3828 10.2266 19.3672 11.0156V11.4023C19.3672 12.2461 19.4453 12.9609 19.6016 13.5469C19.7656 14.1328 20.0352 14.5781 20.4102 14.8828C20.793 15.1875 21.3164 15.3398 21.9805 15.3398C22.5273 15.3398 22.9766 15.1875 23.3281 14.8828C23.6797 14.5781 23.9414 14.1328 24.1133 13.5469C24.293 12.9531 24.3828 12.2305 24.3828 11.3789C24.3828 10.0977 24.1836 9.13281 23.7852 8.48438C23.3867 7.83594 22.7695 7.51172 21.9336 7.51172ZM36.3828 4.65234C37.5938 4.65234 38.6367 4.88672 39.5117 5.35547C40.3867 5.81641 41.0625 6.48828 41.5391 7.37109C42.0156 8.25391 42.2539 9.33203 42.2539 10.6055V12.3398H33.8047C33.8438 13.3477 34.1445 14.1406 34.707 14.7188C35.2773 15.2891 36.0664 15.5742 37.0742 15.5742C37.9102 15.5742 38.6758 15.4883 39.3711 15.3164C40.0664 15.1445 40.7812 14.8867 41.5156 14.543V17.3086C40.8672 17.6289 40.1875 17.8633 39.4766 18.0117C38.7734 18.1602 37.918 18.2344 36.9102 18.2344C35.5977 18.2344 34.4336 17.9922 33.418 17.5078C32.4102 17.0234 31.6172 16.2852 31.0391 15.293C30.4688 14.3008 30.1836 13.0508 30.1836 11.543C30.1836 10.0117 30.4414 8.73828 30.957 7.72266C31.4805 6.69922 32.207 5.93359 33.1367 5.42578C34.0664 4.91016 35.1484 4.65234 36.3828 4.65234ZM36.4062 7.19531C35.7109 7.19531 35.1328 7.41797 34.6719 7.86328C34.2188 8.30859 33.957 9.00781 33.8867 9.96094H38.9023C38.8945 9.42969 38.7969 8.95703 38.6094 8.54297C38.4297 8.12891 38.1562 7.80078 37.7891 7.55859C37.4297 7.31641 36.9688 7.19531 36.4062 7.19531ZM48.7344 4.89844V9.9375H53.7266V4.89844H57.3008V18H53.7266V12.5977H48.7344V18H45.1602V4.89844H48.7344ZM64.5078 4.89844V10.0781C64.5078 10.3438 64.4961 10.6797 64.4727 11.0859C64.457 11.4844 64.4336 11.8906 64.4023 12.3047C64.3711 12.7188 64.3398 13.0898 64.3086 13.418C64.2773 13.7461 64.2539 13.9688 64.2383 14.0859L70.2852 4.89844H74.5859V18H71.1289V12.7734C71.1289 12.3438 71.1445 11.8711 71.1758 11.3555C71.207 10.832 71.2422 10.3398 71.2812 9.87891C71.3203 9.41797 71.3477 9.07031 71.3633 8.83594L65.3398 18H61.0508V4.89844H64.5078ZM85.6367 4.65234C87.1133 4.65234 88.3047 5.22656 89.2109 6.375C90.125 7.52344 90.582 9.20703 90.582 11.4258C90.582 12.9102 90.3672 14.1602 89.9375 15.1758C89.5078 16.1836 88.9141 16.9453 88.1562 17.4609C87.3984 17.9766 86.5273 18.2344 85.543 18.2344C84.9102 18.2344 84.3672 18.1562 83.9141 18C83.4609 17.8359 83.0742 17.6289 82.7539 17.3789C82.4336 17.1211 82.1562 16.8477 81.9219 16.5586H81.7344C81.7969 16.8711 81.8438 17.1914 81.875 17.5195C81.9062 17.8477 81.9219 18.168 81.9219 18.4805V23.7656H78.3477V4.89844H81.2539L81.7578 6.59766H81.9219C82.1562 6.24609 82.4414 5.92188 82.7773 5.625C83.1133 5.32812 83.5156 5.09375 83.9844 4.92188C84.4609 4.74219 85.0117 4.65234 85.6367 4.65234ZM84.4883 7.51172C83.8633 7.51172 83.3672 7.64062 83 7.89844C82.6328 8.15625 82.3633 8.54297 82.1914 9.05859C82.0273 9.57422 81.9375 10.2266 81.9219 11.0156V11.4023C81.9219 12.2461 82 12.9609 82.1562 13.5469C82.3203 14.1328 82.5898 14.5781 82.9648 14.8828C83.3477 15.1875 83.8711 15.3398 84.5352 15.3398C85.082 15.3398 85.5312 15.1875 85.8828 14.8828C86.2344 14.5781 86.4961 14.1328 86.668 13.5469C86.8477 12.9531 86.9375 12.2305 86.9375 11.3789C86.9375 10.0977 86.7383 9.13281 86.3398 8.48438C85.9414 7.83594 85.3242 7.51172 84.4883 7.51172ZM105.441 11.4258C105.441 12.5195 105.293 13.4883 104.996 14.332C104.707 15.1758 104.281 15.8906 103.719 16.4766C103.164 17.0547 102.492 17.4922 101.703 17.7891C100.922 18.0859 100.039 18.2344 99.0547 18.2344C98.1328 18.2344 97.2852 18.0859 96.5117 17.7891C95.7461 17.4922 95.0781 17.0547 94.5078 16.4766C93.9453 15.8906 93.5078 15.1758 93.1953 14.332C92.8906 13.4883 92.7383 12.5195 92.7383 11.4258C92.7383 9.97266 92.9961 8.74219 93.5117 7.73438C94.0273 6.72656 94.7617 5.96094 95.7148 5.4375C96.668 4.91406 97.8047 4.65234 99.125 4.65234C100.352 4.65234 101.438 4.91406 102.383 5.4375C103.336 5.96094 104.082 6.72656 104.621 7.73438C105.168 8.74219 105.441 9.97266 105.441 11.4258ZM96.3828 11.4258C96.3828 12.2852 96.4766 13.0078 96.6641 13.5938C96.8516 14.1797 97.1445 14.6211 97.543 14.918C97.9414 15.2148 98.4609 15.3633 99.1016 15.3633C99.7344 15.3633 100.246 15.2148 100.637 14.918C101.035 14.6211 101.324 14.1797 101.504 13.5938C101.691 13.0078 101.785 12.2852 101.785 11.4258C101.785 10.5586 101.691 9.83984 101.504 9.26953C101.324 8.69141 101.035 8.25781 100.637 7.96875C100.238 7.67969 99.7188 7.53516 99.0781 7.53516C98.1328 7.53516 97.4453 7.85938 97.0156 8.50781C96.5938 9.15625 96.3828 10.1289 96.3828 11.4258ZM120.008 8.33203C120.008 9.03516 119.785 9.63672 119.34 10.1367C118.902 10.6289 118.254 10.9453 117.395 11.0859V11.1797C118.301 11.2891 119.031 11.6055 119.586 12.1289C120.141 12.6445 120.418 13.2969 120.418 14.0859C120.418 14.8359 120.223 15.5078 119.832 16.1016C119.441 16.6875 118.82 17.1523 117.969 17.4961C117.117 17.832 116.004 18 114.629 18H108.395V4.89844H114.629C115.652 4.89844 116.57 5.00781 117.383 5.22656C118.195 5.4375 118.836 5.79297 119.305 6.29297C119.773 6.79297 120.008 7.47266 120.008 8.33203ZM116.715 13.8984C116.715 13.3828 116.512 13.0117 116.105 12.7852C115.707 12.5508 115.113 12.4336 114.324 12.4336H111.969V15.5273H114.395C115.066 15.5273 115.621 15.4023 116.059 15.1523C116.496 14.9023 116.715 14.4844 116.715 13.8984ZM116.387 8.61328C116.387 8.20703 116.227 7.90625 115.906 7.71094C115.586 7.51562 115.113 7.41797 114.488 7.41797H111.969V10.0078H114.078C114.836 10.0078 115.41 9.89844 115.801 9.67969C116.191 9.46094 116.387 9.10547 116.387 8.61328ZM132.078 4.89844H136.016L130.824 11.1797L136.473 18H132.418L127.062 11.3555V18H123.488V4.89844H127.062V11.2617L132.078 4.89844ZM143.715 4.62891C145.473 4.62891 146.82 5.01172 147.758 5.77734C148.695 6.54297 149.164 7.70703 149.164 9.26953V18H146.668L145.977 16.2188H145.883C145.508 16.6875 145.125 17.0703 144.734 17.3672C144.344 17.6641 143.895 17.8828 143.387 18.0234C142.879 18.1641 142.262 18.2344 141.535 18.2344C140.762 18.2344 140.066 18.0859 139.449 17.7891C138.84 17.4922 138.359 17.0391 138.008 16.4297C137.656 15.8125 137.48 15.0312 137.48 14.0859C137.48 12.6953 137.969 11.6719 138.945 11.0156C139.922 10.3516 141.387 9.98438 143.34 9.91406L145.613 9.84375V9.26953C145.613 8.58203 145.434 8.07812 145.074 7.75781C144.715 7.4375 144.215 7.27734 143.574 7.27734C142.941 7.27734 142.32 7.36719 141.711 7.54688C141.102 7.72656 140.492 7.95312 139.883 8.22656L138.699 5.8125C139.395 5.44531 140.172 5.15625 141.031 4.94531C141.898 4.73438 142.793 4.62891 143.715 4.62891ZM145.613 11.9297L144.23 11.9766C143.074 12.0078 142.27 12.2148 141.816 12.5977C141.371 12.9805 141.148 13.4844 141.148 14.1094C141.148 14.6562 141.309 15.0469 141.629 15.2812C141.949 15.5078 142.367 15.6211 142.883 15.6211C143.648 15.6211 144.293 15.3945 144.816 14.9414C145.348 14.4883 145.613 13.8438 145.613 13.0078V11.9297Z" fill="#CF4D4F"/>
</svg>
